<svg height="297mm" viewBox="0 0 744.09448819 1052.3622047" width="210mm" xmlns="http://www.w3.org/2000/svg" xmlns:xlink="http://www.w3.org/1999/xlink"><linearGradient id="a" gradientUnits="userSpaceOnUse" x1="303.30713" x2="491.63574" y1="597.58234" y2="431.77542"><stop offset="0" stop-color="#4e505d"/><stop offset="1" stop-color="#7a859c"/></linearGradient><path d="m231.57209 431.77543v84.9431h36.35544c11.303 0 19.72333-2.01025 25.26104-6.03077 5.5377-4.02054 8.30657-10.12718 8.30657-18.31996-.00001-5.34805-1.2896-9.86167-3.86882-13.54083-2.57922-3.67915-6.22044-6.20149-10.9237-7.56694 3.67916-1.4034 6.48595-3.54639 8.42036-6.42906 1.93441-2.92055 2.90161-6.44801 2.90161-10.58231 0-7.85141-2.65507-13.55982-7.96521-17.12519-5.27219-3.56535-13.80634-5.34804-25.60242-5.34804zm88.75504 0v84.9431h60.36483v-16.55622h-38.46053v-19.45784h34.98996v-16.55622h-34.98996v-15.8166h37.20884v-16.55622zm69.5248 0v16.55622h28.21955v68.38688h21.90428v-68.38688h28.16267v-16.55622zm101.7838 0-31.46251 84.9431h22.01806l5.40496-15.47523h34.25036l5.34804 15.47523h22.01809l-31.46251-84.9431zm-238.15935 14.90627h12.11848c3.45158 0 6.06871.77757 7.85141 2.33267 1.78269 1.5172 2.67402 3.73607 2.67402 6.65664 0 2.9585-.89133 5.19636-2.67402 6.71352-1.7827 1.51717-4.39983 2.27577-7.85141 2.27577h-12.11848zm251.24504 5.0067 11.60644 33.79521h-23.26977zm-251.24504 27.87821h12.8581c4.43776 0 7.75658.92926 9.9565 2.78782 2.19992 1.82061 3.29985 4.5705 3.29985 8.24966 0 3.755-1.1189 6.56179-3.35675 8.42032-2.19992 1.85856-5.49978 2.78782-9.8996 2.78782h-12.8581zm176.11615 48.63889v10.19545h8.05625v-10.19545zm-118.31726 17.89892c-7.35367 0-13.2039 2.36738-17.55187 7.09472-4.31883 4.69818-6.47459 11.05752-6.47459 19.08233 0 7.7622 2.27504 13.92131 6.82731 18.47358 4.58146 4.55227 10.78387 6.82731 18.60442 6.82731 3.12238 0 6.1991-.31953 9.23394-.96151 3.03484-.642 5.99796-1.57929 8.88688-2.8049v-7.61244c-2.85974 1.5174-5.75256 2.65496-8.67069 3.41364-2.88891.75872-5.879 1.1379-8.97221 1.1379-5.34016 0-9.51108-1.44642-12.51674-4.33534-2.97647-2.91815-4.63944-7.1487-4.98961-12.69314h37.03246v-3.94275c0-7.29531-1.92854-13.05321-5.78046-17.28446-3.82274-4.26047-9.03391-6.39494-15.62884-6.39494zm58.91967 0c-3.88107 0-7.18006.73139-9.89389 2.19045-2.71386 1.42987-4.91293 3.63462-6.60543 6.6111v-7.61815h-8.10174v49.0258h8.10174v-25.8243c0-5.54444 1.20781-9.79134 3.62985-12.73863 2.45121-2.97649 5.9561-4.4662 10.50835-4.4662 1.284 0 2.44849.12986 3.49901.39256 1.07971.23345 2.07095.61264 2.97558 1.1379l-.0455-8.27244c-.81707-.14583-1.5591-.24886-2.23025-.30725-.67118-.0875-1.28326-.13084-1.83769-.13084zm28.23094 0c-6.01131 0-10.64802 1.25683-13.91635 3.7664-3.26827 2.50961-4.90426 6.06843-4.90426 10.67906 0 3.79356 1.11054 6.78363 3.32832 8.97224 2.21776 2.15939 5.81991 3.76841 10.80988 4.81893l2.79921.65428c4.98997 1.0797 8.21867 2.2009 9.67771 3.36813 1.48825 1.16726 2.23025 2.84658 2.23025 5.03516 0 2.36366-1.01824 4.20559-3.0609 5.51874-2.04268 1.28396-4.96248 1.92301-8.75604 1.92301-2.83058.00003-5.69071-.37915-8.57964-1.13787-2.88896-.78791-5.81939-1.95241-8.79585-3.49899v8.31223c3.15156 1.02135 6.14165 1.77969 8.97224 2.27577 2.85973.52527 5.60058.79085 8.22688.79085 6.30315 0 11.24875-1.32713 14.83801-3.9826 3.61849-2.65548 5.42775-6.26333 5.42775-10.8156 0-3.99781-1.20785-7.10151-3.62988-9.31929-2.39284-2.24696-6.45016-3.9859-12.16966-5.2115l-2.75939-.61447c-4.31882-.96297-7.18959-1.96486-8.61947-3.01541-1.4299-1.07969-2.14491-2.55308-2.14491-4.42066 0-2.45121.99125-4.29313 2.97555-5.51874 2.01352-1.2256 5.01992-1.83768 9.01776-1.83768 2.62629 0 5.16124.29255 7.61245.87617 2.45123.58361 4.81857 1.46128 7.0947 2.62851v-7.61814c-2.21775-.87543-4.64476-1.53083-7.27109-1.96854-2.62628-.43773-5.42681-.65999-8.40327-.65999zm75.02644 0c-7.03265 0-12.54701 2.27504-16.54483 6.82731-3.96864 4.55227-5.95113 10.85765-5.95113 18.91165 0 8.02485 1.98249 14.33022 5.95113 18.91167 3.99782 4.55227 9.51218 6.82731 16.54483 6.82731 7.0035 0 12.50151-2.27504 16.49935-6.82731 3.99782-4.58145 5.99665-10.88682 5.99665-18.91167 0-8.054-1.99883-14.35938-5.99665-18.91165-3.99784-4.55227-9.49585-6.82731-16.49935-6.82731zm59.44315 0c-3.41423 0-6.43696.73139-9.06326 2.19045-2.59713 1.45905-4.85587 3.66381-6.78181 6.6111v-7.61815h-8.10174v49.0258h8.10174v-27.70752c0-4.78571 1.25113-8.5668 3.76072-11.33903 2.50956-2.77221 5.93847-4.15895 10.28649-4.15895 3.61844 0 6.33233 1.15385 8.14156 3.45916 1.80922 2.30531 2.71385 5.77753 2.71385 10.41733v29.32901h8.05624v-29.59071c0-6.77003-1.44642-11.8946-4.33536-15.36714-2.88892-3.50176-7.14646-5.25135-12.77843-5.25135zm-300.97633 1.1834 18.38255 49.0258h10.94646l18.38254-49.0258h-8.53415l-15.32164 41.14592-15.32161-41.14592zm197.67339 0v49.0258h8.05625v-49.0258zm-118.22623 5.64391c3.96861 0 7.1483 1.31647 9.54116 3.94278 2.42204 2.62629 3.66253 6.14184 3.72088 10.54819l-28.71452.0455c.40853-4.61063 1.95789-8.18581 4.64255-10.72456 2.71386-2.53879 6.31601-3.81194 10.80993-3.81194zm162.08602 0c4.28967 0 7.69156 1.712 10.20117 5.12619 2.50956 3.38501 3.76069 7.97841 3.76069 13.78546 0 5.83624-1.25113 10.44598-3.76069 13.83101-2.50961 3.385-5.9115 5.08066-10.20117 5.08066-4.34798 0-7.77688-1.67931-10.28644-5.03515-2.48041-3.38501-3.72092-8.0111-3.72092-13.87652 0-5.8654 1.25682-10.47514 3.76641-13.831 2.50959-3.38499 5.92216-5.08065 10.24095-5.08065z" fill="url(#a)"/><g fill="none"><rect height="207.82179" ry="11.570156" stroke="#7a859c" stroke-dasharray="34 17" stroke-dashoffset="22.1" stroke-linejoin="round" stroke-width="17" width="365.40701" x="208.79884" y="409.57886"/><path d="m201.5702 322.36221h376.8596c6.40989 0 11.5702 5.16031 11.5702 11.5702v376.8596c0 6.40989-5.16031 11.5702-11.5702 11.5702h-376.8596c-6.40989 0-11.5702-5.16031-11.5702-11.5702v-376.8596c0-6.40989 5.16031-11.5702 11.5702-11.5702z"/></g></svg>