<svg width="221" height="258" viewBox="0 0 221 258" fill="none" xmlns="http://www.w3.org/2000/svg">
<g clip-path="url(#clip0_717_418)">
<path d="M221 228.332H161.682V227.563C177.211 227.563 192.103 221.386 203.083 210.391C214.063 199.397 220.232 184.485 220.232 168.936V127.485H221V228.332Z" fill="#F2F2F2"/>
<path d="M59.1494 78.512C57.5725 79.1135 55.9623 79.6234 54.3267 80.0391C52.1663 80.5663 50.9465 80.8107 48.8613 80.0004C48.7881 79.9719 48.7182 79.9438 48.6522 79.9161C44.6998 78.2334 41.3211 75.4365 38.9275 71.8658C36.5339 68.2952 35.2286 64.1047 35.1704 59.8047C35.16 59.6572 35.16 59.5021 35.16 59.3508C35.158 58.622 35.1928 57.8936 35.2643 57.1683C35.3556 56.1804 35.5135 55.1997 35.7367 54.2331L35.7158 54.2293C34.0276 52.5007 33.378 50.1329 33.5934 47.7537C33.7409 46.1407 34.2521 44.5823 35.0885 43.1959C35.9249 41.8095 37.0647 40.6313 38.4219 39.75C40.5489 38.4109 42.9472 37.5633 45.4424 37.2687C46.1124 37.1913 46.7863 37.1522 47.4607 37.1514H53.7969C55.1055 36.8446 56.4349 36.6348 57.7744 36.5235H57.7848C70.5371 35.4644 80.5937 43.9296 79.6557 54.2293C79.6488 54.2407 79.6384 54.252 79.6314 54.2634C79.3605 54.7059 79.1208 55.1257 78.9089 55.5267C78.7039 55.9011 78.5302 56.2605 78.3809 56.6009C77.2171 59.2335 82.7474 100.078 80.7639 100.699C79.6349 101.05 75.0842 70.6566 75.9006 76.4362C76.9288 83.6872 65.0243 76.3374 59.1494 78.512Z" fill="#2F2E41"/>
<path d="M78.3599 152.348L96.0371 190.056L28.0371 183.16L42.2318 146.96L78.3599 152.348Z" fill="#FFB6B6"/>
<path d="M113.846 227.952C102.021 231.893 89.5593 233.564 77.1155 232.878L71.7044 224.091C71.7044 224.091 71.4778 227.363 71.1398 232.366C65.2162 231.679 59.3699 230.438 53.6773 228.659C42.8819 225.279 32.7623 220.042 22.5045 215.212C20.4268 202.81 19.6472 183.687 31.134 172.554L92.9612 183.898C92.9612 183.898 102.881 191.328 100.227 193.989C97.5736 196.646 97.1626 196.234 98.9062 197.98C100.65 199.726 104.417 202.06 104.456 203.587C104.471 204.183 108.699 214.993 113.846 227.952Z" fill="#2F2E41"/>
<path d="M67.5634 79.4807L52.6261 80.5242L42.9716 89.8657L39.5904 90.47C36.5511 91.0126 33.8163 92.6531 31.9046 95.0804C29.9929 97.5077 29.0373 100.553 29.2189 103.639C29.9144 115.438 31.4716 133.068 34.7263 138.787C39.7731 147.656 43.9417 144.873 39.7731 147.656C35.6046 150.439 32.8059 148.252 34.7263 152.65C36.6467 157.048 32.1308 162.688 32.1308 162.688L30.3331 164.488L32.2398 165.271L92.9941 173.187C92.9941 173.187 87.7409 149.536 91.0262 143.727C94.3115 137.917 102.277 120.355 95.168 113.483L88.2168 88.99L76.2601 85.4589L67.5634 79.4807Z" fill="#6DBF5A"/>
<path d="M157.986 176.549C156.986 176.517 156.005 176.268 155.111 175.82C154.217 175.371 153.431 174.733 152.807 173.951C152.183 173.168 151.737 172.259 151.498 171.286C151.26 170.313 151.235 169.301 151.426 168.318L122.928 148.992L126.328 139.785L160.009 162.986C161.637 163.431 163.046 164.458 163.969 165.874C164.891 167.29 165.263 168.995 165.014 170.667C164.764 172.339 163.911 173.861 162.616 174.945C161.32 176.029 159.673 176.6 157.986 176.549Z" fill="#FFB6B6"/>
<path d="M77.4914 87.8333L73.3502 89.4752L95.441 132.677L141.173 163.89L147.765 152.734L112.953 122.626L99.0165 95.8617C97.0551 92.0952 93.7695 89.1901 89.7941 87.7073C85.8187 86.2246 81.4356 86.2695 77.4914 87.8333Z" fill="#6DBF5A"/>
<path d="M59.3175 75.6814C67.6013 75.6814 74.3166 68.9572 74.3166 60.6626C74.3166 52.3679 67.6013 45.6438 59.3175 45.6438C51.0337 45.6438 44.3184 52.3679 44.3184 60.6626C44.3184 68.9572 51.0337 75.6814 59.3175 75.6814Z" fill="#FFB6B6"/>
<path d="M72.3608 54.3115C72.1107 54.4437 71.864 54.5654 71.6139 54.6872C71.3534 54.8124 71.0928 54.9376 70.8288 55.0559C65.8092 57.3342 61.7206 57.5881 59.2403 54.3115C59.1724 52.5877 58.7849 50.8916 58.0974 49.3097C58.2189 51.0775 57.7536 52.8359 56.7739 54.3115H51.7786C46.6339 57.7307 43.9938 60.8717 47.5649 72.0962C47.7976 72.8337 49.3921 99.0325 49.8472 101.046C42.0589 98.0551 35.3406 66.2944 35.1704 57.9255C35.16 57.7899 35.16 57.6472 35.16 57.5081C35.158 56.8377 35.1928 56.1677 35.2642 55.5011C35.3559 54.5911 35.5138 53.6889 35.7366 52.8019L35.7158 52.7984C34.9234 52.0399 34.3189 51.1065 33.9504 50.0726C33.5819 49.0388 33.4596 47.9331 33.5933 46.8435C34.8998 45.1306 36.5166 43.6792 38.3593 42.5652C40.0349 41.7527 41.7815 41.096 43.577 40.6034C43.6221 40.593 43.6603 40.5825 43.7055 40.5721C44.2544 40.4225 44.8171 40.2869 45.3799 40.1686C46.5396 39.9251 47.7121 39.7474 48.8919 39.6364C48.9787 39.6329 49.0621 39.626 49.1385 39.626C49.6104 39.6263 50.0735 39.7536 50.4794 39.9947C50.4829 39.9947 50.4829 39.9982 50.4898 39.9982C50.8798 40.2315 51.2032 40.5614 51.4289 40.9562C51.6546 41.3509 51.775 41.7972 51.7786 42.2521H57.3436C57.5485 42.2521 57.7535 42.2591 57.9584 42.2695C65.7084 42.5791 71.937 45.8974 72.3364 53.5254C72.3538 53.7898 72.3608 54.0472 72.3608 54.3115Z" fill="#2F2E41"/>
<path d="M39.4594 54.9152C44.9168 54.9152 49.3409 50.4852 49.3409 45.0207C49.3409 39.5561 44.9168 35.1262 39.4594 35.1262C34.002 35.1262 29.5779 39.5561 29.5779 45.0207C29.5779 50.4852 34.002 54.9152 39.4594 54.9152Z" fill="#2F2E41"/>
<path d="M53.0257 40.4442C51.9031 45.7919 46.3644 48.9903 41.0657 47.682C38.5212 47.0537 36.3302 45.439 34.9746 43.1931C33.6191 40.9473 33.21 38.2542 33.8375 35.7063C35.1441 30.4007 41.5747 31.9303 45.7974 28.4686C51.7711 23.5715 54.5397 33.2324 53.0257 40.4442Z" fill="#2F2E41"/>
<path d="M31.0704 189.303C39.4923 154.914 56.1793 125.356 83.8153 102.198C84.8849 100.436 86.6087 99.1711 88.6086 98.6803C90.6085 98.1896 92.7211 98.5132 94.483 99.5801L160.181 139.466C161.94 140.537 163.204 142.263 163.694 144.266C164.184 146.268 163.861 148.384 162.795 150.148C152.247 185.435 136.448 216.055 110.05 237.253C108.981 239.015 107.257 240.28 105.257 240.771C103.257 241.262 101.145 240.938 99.3827 239.871L33.6849 199.985C31.9254 198.914 30.662 197.188 30.1719 195.185C29.6817 193.183 30.0049 191.068 31.0704 189.303Z" fill="#F2F2F2"/>
<path opacity="0.2" d="M42.7475 200.893C40.9881 199.822 39.7247 198.096 39.2345 196.093C38.7444 194.091 39.0676 191.976 40.1331 190.211C48.5549 155.822 65.242 126.264 92.8779 103.106C93.5859 101.953 94.5856 101.007 95.7757 100.365L94.4829 99.5801C92.721 98.5132 90.6084 98.1896 88.6086 98.6803C86.6087 99.1711 84.8849 100.436 83.8153 102.198C56.1793 125.356 39.4923 154.914 31.0705 189.303C30.0049 191.068 29.6817 193.183 30.1719 195.185C30.662 197.188 31.9254 198.914 33.6849 199.985L99.3826 239.871C100.552 240.576 101.886 240.958 103.251 240.98C104.615 241.001 105.961 240.661 107.152 239.994L42.7475 200.893Z" fill="black"/>
<path d="M119.794 181.68L75.6949 155.073C74.9943 154.649 74.4903 153.964 74.2938 153.169C74.0972 152.373 74.2241 151.532 74.6466 150.83C75.069 150.128 75.7525 149.622 76.5469 149.424C77.3414 149.226 78.1817 149.352 78.8834 149.774L122.983 176.381C123.682 176.806 124.184 177.49 124.379 178.285C124.575 179.08 124.448 179.92 124.026 180.622C123.604 181.323 122.922 181.828 122.128 182.026C121.335 182.225 120.496 182.1 119.794 181.68Z" fill="white"/>
<path d="M94.14 146.397L84.4382 140.544C83.7351 140.123 83.2279 139.439 83.0282 138.643C82.8284 137.848 82.9525 137.005 83.3731 136.301C83.7937 135.597 84.4764 135.089 85.271 134.889C86.0656 134.689 86.907 134.814 87.6101 135.235L87.6268 135.245L97.3286 141.098C98.0277 141.523 98.5302 142.208 98.7258 143.003C98.9215 143.798 98.7944 144.638 98.3724 145.339C97.9503 146.041 97.2679 146.546 96.4745 146.744C95.6811 146.942 94.8416 146.818 94.14 146.397Z" fill="white"/>
<path d="M112.785 193.327L68.6859 166.721C67.9845 166.298 67.4795 165.614 67.2818 164.818C67.0841 164.022 67.21 163.181 67.6317 162.478C68.0535 161.775 68.7366 161.269 69.5309 161.07C70.3253 160.872 71.166 160.997 71.8682 161.418L71.8745 161.422L115.974 188.029C116.673 188.453 117.175 189.138 117.371 189.933C117.566 190.728 117.439 191.568 117.017 192.269C116.595 192.97 115.913 193.475 115.119 193.674C114.326 193.872 113.487 193.748 112.785 193.327Z" fill="white"/>
<path d="M125.395 131.513C132.508 131.513 138.275 125.738 138.275 118.615C138.275 111.492 132.508 105.718 125.395 105.718C118.281 105.718 112.514 111.492 112.514 118.615C112.514 125.738 118.281 131.513 125.395 131.513Z" fill="#3F3D56"/>
<path d="M103.192 256.815C118.396 256.815 130.722 244.474 130.722 229.249C130.722 214.025 118.396 201.683 103.192 201.683C87.9874 201.683 75.6617 214.025 75.6617 229.249C75.6617 244.474 87.9874 256.815 103.192 256.815Z" fill="white"/>
<path d="M103.192 257.2C97.6709 257.2 92.274 255.561 87.6835 252.489C83.0931 249.418 79.5152 245.053 77.4025 239.946C75.2897 234.838 74.7369 229.218 75.814 223.796C76.891 218.374 79.5496 213.394 83.4534 209.485C87.3573 205.576 92.3311 202.914 97.7459 201.835C103.161 200.757 108.773 201.31 113.874 203.426C118.975 205.541 123.334 209.124 126.402 213.72C129.469 218.317 131.106 223.721 131.106 229.249C131.098 236.659 128.154 243.764 122.921 249.004C117.688 254.244 110.593 257.192 103.192 257.2ZM103.192 202.067C97.8228 202.067 92.5744 203.662 88.1102 206.648C83.6461 209.635 80.1667 213.88 78.112 218.847C76.0574 223.814 75.5199 229.279 76.5673 234.552C77.6148 239.825 80.2002 244.668 83.9967 248.47C87.7932 252.271 92.6302 254.86 97.896 255.909C103.162 256.957 108.62 256.419 113.58 254.362C118.541 252.304 122.78 248.82 125.763 244.35C128.746 239.88 130.338 234.625 130.338 229.249C130.33 222.042 127.467 215.133 122.378 210.038C117.289 204.942 110.389 202.076 103.192 202.067Z" fill="#3F3D56"/>
<path d="M99.4362 243.596C98.9608 243.596 98.4919 243.485 98.0667 243.272C97.6416 243.059 97.2717 242.75 96.9866 242.369L89.4759 232.342C89.2342 232.02 89.0583 231.653 88.9582 231.263C88.8581 230.873 88.8358 230.466 88.8925 230.067C88.9493 229.669 89.084 229.285 89.2889 228.938C89.4939 228.591 89.765 228.289 90.0869 228.047C90.4088 227.805 90.7751 227.629 91.1649 227.529C91.5548 227.429 91.9604 227.407 92.3587 227.465C92.757 227.522 93.1401 227.657 93.4862 227.863C93.8323 228.068 94.1346 228.34 94.3757 228.662L99.2894 235.222L111.91 216.267C112.133 215.932 112.42 215.644 112.754 215.42C113.088 215.196 113.463 215.04 113.857 214.961C114.252 214.882 114.658 214.882 115.052 214.96C115.447 215.038 115.822 215.193 116.157 215.417C116.491 215.64 116.779 215.927 117.002 216.262C117.226 216.596 117.382 216.972 117.461 217.367C117.54 217.762 117.54 218.168 117.462 218.563C117.384 218.958 117.229 219.334 117.006 219.669L101.985 242.23C101.713 242.639 101.347 242.975 100.919 243.213C100.49 243.45 100.011 243.581 99.5215 243.595C99.4931 243.596 99.4646 243.596 99.4362 243.596Z" fill="#6DBF5A"/>
<path d="M192.101 89.5558C193.195 89.4621 194.029 88.7684 193.964 88.0064C193.899 87.2444 192.959 86.7026 191.865 86.7962C190.771 86.8899 189.937 87.5836 190.002 88.3456C190.068 89.1076 191.007 89.6494 192.101 89.5558Z" fill="white"/>
<path d="M204.41 85.3746C205.504 85.281 206.338 84.5873 206.273 83.8253C206.208 83.0632 205.268 82.5214 204.174 82.6151C203.08 82.7087 202.246 83.4024 202.311 84.1644C202.376 84.9265 203.316 85.4683 204.41 85.3746Z" fill="#3F3D56"/>
<path d="M186.267 80.1527C187.36 80.059 188.195 79.3654 188.13 78.6033C188.064 77.8413 187.125 77.2995 186.031 77.3932C184.937 77.4868 184.103 78.1805 184.168 78.9425C184.233 79.7045 185.173 80.2464 186.267 80.1527Z" fill="#FF6584"/>
<path d="M181.103 77.1228C181.574 77.0162 181.832 76.3805 181.679 75.7027C181.526 75.025 181.02 74.5619 180.55 74.6684C180.079 74.775 179.821 75.4108 179.974 76.0885C180.127 76.7662 180.633 77.2293 181.103 77.1228Z" fill="#E6E6E6"/>
<path d="M177.427 69.7668C177.898 69.6603 178.156 69.0245 178.003 68.3467C177.85 67.669 177.344 67.206 176.874 67.3125C176.403 67.419 176.145 68.0548 176.298 68.7325C176.451 69.4103 176.957 69.8733 177.427 69.7668Z" fill="#3F3D56"/>
<path d="M195.064 80.0969C195.535 79.9903 195.793 79.3546 195.64 78.6768C195.487 77.9991 194.981 77.536 194.51 77.6426C194.04 77.7491 193.782 78.3849 193.935 79.0626C194.088 79.7403 194.593 80.2034 195.064 80.0969Z" fill="#E6E6E6"/>
<path d="M189.688 84.5659C190.159 84.4593 190.417 83.8236 190.264 83.1458C190.111 82.4681 189.605 82.005 189.134 82.1116C188.663 82.2181 188.406 82.8539 188.559 83.5316C188.711 84.2093 189.217 84.6724 189.688 84.5659Z" fill="#FF6584"/>
<path d="M199.475 88.2058C199.946 88.0992 200.204 87.4634 200.051 86.7857C199.898 86.108 199.392 85.6449 198.922 85.7515C198.451 85.858 198.193 86.4937 198.346 87.1715C198.499 87.8492 199.004 88.3123 199.475 88.2058Z" fill="#3F3D56"/>
<path d="M141.282 32.5761C141.47 31.8347 140.759 31.0148 139.695 30.7447C138.631 30.4746 137.616 30.8567 137.428 31.5981C137.24 32.3394 137.951 33.1594 139.015 33.4294C140.08 33.6995 141.095 33.3175 141.282 32.5761Z" fill="white"/>
<path d="M128.285 32.4923C128.472 31.751 127.762 30.931 126.697 30.6609C125.633 30.3909 124.618 30.7729 124.431 31.5143C124.243 32.2557 124.954 33.0756 126.018 33.3457C127.082 33.6158 128.097 33.2337 128.285 32.4923Z" fill="#3F3D56"/>
<path d="M143.721 43.3737C143.909 42.6323 143.198 41.8124 142.134 41.5423C141.07 41.2722 140.055 41.6543 139.867 42.3957C139.679 43.137 140.39 43.957 141.454 44.2271C142.519 44.4971 143.534 44.1151 143.721 43.3737Z" fill="#FF6584"/>
<path d="M146.751 47.445C146.828 46.7545 146.502 46.1512 146.022 46.0976C145.542 46.0439 145.091 46.5601 145.014 47.2507C144.937 47.9412 145.263 48.5445 145.743 48.5982C146.223 48.6518 146.674 48.1356 146.751 47.445Z" fill="#E6E6E6"/>
<path d="M147.82 55.6006C147.897 54.91 147.571 54.3067 147.091 54.2531C146.611 54.1994 146.16 54.7157 146.083 55.4062C146.006 56.0967 146.332 56.7 146.812 56.7537C147.291 56.8074 147.743 56.2911 147.82 55.6006Z" fill="#3F3D56"/>
<path d="M134.532 40.0586C134.609 39.368 134.282 38.7648 133.803 38.7111C133.323 38.6574 132.872 39.1737 132.795 39.8642C132.717 40.5547 133.044 41.158 133.524 41.2117C134.003 41.2654 134.455 40.7491 134.532 40.0586Z" fill="#E6E6E6"/>
<path d="M141.073 37.5981C141.15 36.9076 140.823 36.3043 140.344 36.2506C139.864 36.197 139.413 36.7132 139.335 37.4037C139.258 38.0943 139.585 38.6976 140.065 38.7512C140.544 38.8049 140.996 38.2886 141.073 37.5981Z" fill="#FF6584"/>
<path d="M133.015 30.9507C133.092 30.2601 132.765 29.6568 132.286 29.6032C131.806 29.5495 131.354 30.0658 131.277 30.7563C131.2 31.4468 131.527 32.0501 132.006 32.1038C132.486 32.1575 132.938 31.6412 133.015 30.9507Z" fill="#3F3D56"/>
<path d="M0.768088 101.046H0V0.199951H59.3175V0.969045C43.7893 0.969045 28.8969 7.14571 17.9168 18.1402C6.93667 29.1348 0.768088 44.0465 0.768088 59.5952V101.046Z" fill="#F2F2F2"/>
<path d="M35.1669 189.668C34.1852 189.265 33.3027 188.654 32.5803 187.876C31.8578 187.098 31.3128 186.172 30.9828 185.163C30.6528 184.153 30.5458 183.084 30.6691 182.029C30.7924 180.974 31.1431 179.958 31.6969 179.052L10.5341 149.265L17.3233 141.378L42.2004 176.941C43.654 177.988 44.6736 179.532 45.066 181.281C45.4584 183.031 45.1962 184.864 44.3293 186.432C43.4623 188.001 42.0507 189.197 40.362 189.793C38.6734 190.39 36.8249 190.345 35.1669 189.668Z" fill="#FFB6B6"/>
<path d="M35.6532 95.2724C34.5825 94.6416 33.3224 94.4136 32.099 94.6293C30.8756 94.8449 29.769 95.4902 28.9779 96.4492L0.384033 136.492L26.8831 174.177L37.2522 163.025L21.1224 137.645L42.5591 117.208C44.3207 113.344 44.5897 108.963 43.3143 104.912C42.0389 100.861 39.3095 97.4265 35.6532 95.2724Z" fill="#6DBF5A"/>
</g>
<defs>
<clipPath id="clip0_717_418">
<rect width="221" height="257" fill="white" transform="translate(0 0.199951)"/>
</clipPath>
</defs>
</svg>
