<svg width="413" height="244" viewBox="0 0 413 244" fill="none" xmlns="http://www.w3.org/2000/svg">
<g clip-path="url(#clip0_717_458)">
<path d="M399.841 206.022C395.886 219.752 384.337 229.363 372.29 237.527C370.608 238.668 368.926 239.782 367.242 240.869C367.231 240.874 367.219 240.885 367.208 240.89C367.127 240.942 367.046 240.994 366.97 241.047C366.623 241.271 366.275 241.495 365.931 241.717L366.12 241.802C366.12 241.802 366.306 241.9 366.103 241.817C366.042 241.792 365.979 241.769 365.918 241.744C358.92 238.919 351.797 235.887 346.434 230.596C340.87 225.102 337.619 216.484 340.631 209.266C341.027 208.32 341.528 207.422 342.123 206.587C342.367 206.238 342.63 205.903 342.904 205.574C344.566 203.545 346.738 201.995 349.197 201.083C351.656 200.172 354.313 199.933 356.895 200.39C359.477 200.847 361.89 201.984 363.888 203.684C365.885 205.384 367.394 207.586 368.259 210.063C369.144 201.817 362.349 194.91 355.81 189.813C349.268 184.72 341.834 179.172 340.569 170.972C339.863 166.41 341.449 161.989 344.337 158.439C344.426 158.331 344.515 158.224 344.608 158.119C348.123 153.985 353.068 151.33 358.455 150.685C368.486 149.642 378.23 154.955 385.517 161.934C397.247 173.163 404.337 190.411 399.841 206.022Z" fill="#F2F2F2"/>
<path d="M380.986 188.063C382.911 191.06 384.389 194.322 385.373 197.747C386.206 200.807 386.576 203.975 386.473 207.145C386.204 213.668 384.374 220.031 381.136 225.699C378.697 229.999 375.725 233.973 372.29 237.528C370.608 238.668 368.925 239.782 367.242 240.87C367.231 240.875 367.219 240.885 367.208 240.89C367.127 240.942 367.045 240.994 366.97 241.047C366.623 241.271 366.275 241.495 365.931 241.717C365.931 241.717 366.306 241.901 366.102 241.818C366.042 241.792 365.979 241.769 365.918 241.744C366.545 236.598 365.931 231.377 364.126 226.517C362.322 221.658 359.379 217.303 355.546 213.815C351.703 210.381 347.104 207.905 342.123 206.588C342.367 206.238 342.63 205.903 342.904 205.574C344.828 206.114 346.7 206.823 348.499 207.693C354.93 210.783 360.195 215.863 363.516 222.18C366.497 227.917 367.779 234.385 367.214 240.826C367.501 240.565 367.789 240.299 368.068 240.035C373.386 235.074 378.11 229.379 381.307 222.807C384.08 217.241 385.443 211.078 385.276 204.861C385.015 198.082 382.316 191.803 378.407 186.337C374.124 180.505 369.064 175.287 363.368 170.827C357.627 166.226 351.346 162.346 344.663 159.272C344.512 159.201 344.394 159.076 344.334 158.921C344.273 158.766 344.274 158.593 344.337 158.439C344.381 158.301 344.479 158.186 344.608 158.119C344.674 158.09 344.746 158.077 344.818 158.08C344.89 158.083 344.961 158.102 345.024 158.137C345.849 158.517 346.669 158.902 347.482 159.304C354.251 162.652 360.579 166.829 366.32 171.738C371.865 176.469 377.085 181.874 380.986 188.063Z" fill="white"/>
<path d="M239.52 124.611C240.339 124.314 241.082 123.841 241.699 123.225C242.315 122.61 242.788 121.866 243.086 121.048C243.384 120.229 243.499 119.355 243.423 118.487C243.347 117.619 243.082 116.778 242.646 116.024L256.481 99.996L245.575 98.5754L234.108 114.014C232.891 114.831 232.015 116.066 231.646 117.486C231.278 118.906 231.443 120.412 232.11 121.718C232.777 123.024 233.9 124.04 235.266 124.573C236.632 125.107 238.145 125.12 239.52 124.611Z" fill="#FFB8B8"/>
<path d="M317.505 127.998C318.079 127.343 318.503 126.57 318.746 125.733C318.989 124.897 319.046 124.017 318.913 123.156C318.779 122.295 318.459 121.473 317.974 120.75C317.489 120.026 316.851 119.418 316.106 118.967L320.504 98.25L310.264 102.268L307.658 121.325C306.984 122.628 306.812 124.133 307.174 125.555C307.535 126.976 308.406 128.216 309.619 129.038C310.833 129.861 312.306 130.209 313.76 130.018C315.213 129.826 316.546 129.107 317.505 127.998Z" fill="#FFB8B8"/>
<path d="M267.951 235.969L260.689 235.968L257.235 207.941L267.952 207.942L267.951 235.969Z" fill="#FFB8B8"/>
<path d="M269.803 243.012L246.389 243.011V242.715C246.389 241.517 246.624 240.331 247.082 239.225C247.54 238.118 248.212 237.113 249.058 236.266C249.904 235.42 250.909 234.748 252.015 234.29C253.12 233.831 254.305 233.595 255.502 233.595L269.803 233.596L269.803 243.012Z" fill="#2F2E41"/>
<path d="M303.489 235.969L296.227 235.968L292.773 207.941L303.49 207.942L303.489 235.969Z" fill="#FFB8B8"/>
<path d="M305.341 243.012L281.927 243.011V242.715C281.927 241.517 282.162 240.331 282.62 239.225C283.078 238.118 283.75 237.113 284.596 236.266C285.442 235.42 286.447 234.748 287.553 234.29C288.658 233.831 289.843 233.595 291.04 233.595L305.341 233.596L305.341 243.012Z" fill="#2F2E41"/>
<path d="M268.707 221.334L258.428 220.922C257.727 220.892 257.066 220.587 256.587 220.073C256.109 219.559 255.851 218.878 255.871 218.176L258.767 123.122L258.956 123.054C276.971 116.533 291.875 117.026 304.519 124.559L304.661 124.644L306.396 217.222C306.402 217.576 306.338 217.929 306.207 218.258C306.076 218.587 305.881 218.887 305.633 219.14C305.385 219.394 305.089 219.594 304.762 219.732C304.436 219.869 304.085 219.94 303.731 219.939H295.063C294.445 219.938 293.847 219.723 293.371 219.331C292.894 218.938 292.568 218.393 292.447 217.787L280.64 157.683C280.599 157.476 280.486 157.289 280.32 157.158C280.154 157.026 279.947 156.959 279.735 156.966C279.524 156.974 279.322 157.057 279.166 157.201C279.011 157.344 278.911 157.538 278.886 157.748L271.46 218.99C271.378 219.636 271.064 220.23 270.577 220.662C270.09 221.093 269.463 221.333 268.813 221.335C268.778 221.336 268.743 221.335 268.707 221.334Z" fill="#2F2E41"/>
<path d="M278.707 39.7627C286.742 39.7627 293.255 33.2454 293.255 25.2058C293.255 17.1663 286.742 10.6489 278.707 10.6489C270.673 10.6489 264.16 17.1663 264.16 25.2058C264.16 33.2454 270.673 39.7627 278.707 39.7627Z" fill="#FFB8B8"/>
<path d="M244.437 113.041C243.932 112.841 243.5 112.493 243.198 112.042L240.387 107.833C240.084 107.376 239.928 106.838 239.941 106.29C239.953 105.742 240.134 105.211 240.458 104.769L251.79 89.3783L258.889 55.2925C259.297 54.2398 259.909 53.2779 260.689 52.4619C261.469 51.6459 262.402 50.9917 263.435 50.5368C264.467 50.0819 265.58 49.8351 266.708 49.8106C267.836 49.7861 268.958 49.9844 270.009 50.3941C271.061 50.8039 272.021 51.417 272.836 52.1984C273.651 52.9798 274.303 53.9142 274.757 54.9482C275.21 55.9822 275.455 57.0955 275.478 58.2245C275.502 59.3534 275.302 60.4758 274.891 61.5275L271.536 83.2206C270.519 89.8047 267.146 95.7949 262.045 100.077L247.128 112.603C246.841 112.844 246.507 113.021 246.147 113.124C245.787 113.227 245.409 113.253 245.038 113.2C244.832 113.171 244.63 113.117 244.437 113.041Z" fill="#6DBF5A"/>
<path d="M316.884 114.585C316.374 114.769 315.819 114.793 315.295 114.654L310.406 113.353C309.877 113.211 309.404 112.91 309.052 112.49C308.699 112.07 308.484 111.553 308.436 111.007L306.779 91.962L289.601 61.6825C289.213 60.6225 289.037 59.4964 289.084 58.3684C289.131 57.2404 289.4 56.1327 289.875 55.1086C290.349 54.0845 291.021 53.1641 291.852 52.4C292.683 51.6359 293.656 51.0432 294.715 50.6556C295.775 50.2679 296.9 50.0931 298.028 50.141C299.155 50.189 300.262 50.4587 301.285 50.9349C302.308 51.4111 303.227 52.0844 303.99 52.9162C304.752 53.748 305.344 54.7221 305.73 55.7828L317.536 74.2847C321.119 79.8996 322.543 86.6259 321.542 93.2125L318.615 112.477C318.559 112.848 318.425 113.202 318.223 113.517C318.02 113.833 317.754 114.102 317.441 114.307C317.267 114.422 317.08 114.515 316.884 114.585Z" fill="#6DBF5A"/>
<path d="M262.795 51.0569C265.294 48.315 268.376 46.1694 271.814 44.7784C275.252 43.3875 278.958 42.7867 282.659 43.0204C282.903 43.0354 283.145 43.0524 283.386 43.0713C286.894 43.3489 290.302 44.3726 293.383 46.074C296.464 47.7755 299.146 50.1154 301.25 52.9374C303.39 55.7989 304.894 59.0844 305.663 62.5743C306.431 66.0642 306.446 69.6781 305.707 73.1743C302.886 86.5358 303.6 100.403 307.778 113.403L311.681 125.529C311.806 125.918 311.84 126.33 311.781 126.733C311.722 127.137 311.571 127.522 311.34 127.859C311.108 128.195 310.803 128.473 310.447 128.673C310.091 128.872 309.694 128.988 309.287 129.009L289.335 130.083L284.229 121.258V130.357L259.98 131.662C259.932 131.665 259.884 131.666 259.836 131.666C259.468 131.666 259.104 131.589 258.767 131.442C258.43 131.294 258.127 131.078 257.878 130.807C257.628 130.536 257.437 130.217 257.317 129.869C257.197 129.521 257.151 129.152 257.18 128.785L259.921 94.7754L256.483 71.677C255.927 67.9863 256.205 64.2178 257.297 60.6491C258.39 57.0804 260.269 53.8025 262.795 51.0569Z" fill="#6DBF5A"/>
<path d="M288.818 39.1025C287.471 39.8779 282.147 40.3921 281.768 38.8842L281.76 38.8511C281.496 37.7462 281.715 36.5925 281.791 35.4591C281.867 34.3256 281.756 33.0805 280.984 32.2471C279.546 30.6936 276.988 31.5172 274.908 31.1244C273.69 30.8523 272.613 30.1454 271.878 29.136C271.143 28.1266 270.801 26.8838 270.916 25.6403C270.946 25.4047 270.992 25.1689 271.044 24.9331C271.174 24.3359 271.164 23.7167 271.015 23.124C270.865 22.5313 270.581 21.9813 270.183 21.5172C269.786 21.0532 269.286 20.6876 268.724 20.4492C268.161 20.2109 267.551 20.1062 266.941 20.1435C264.84 20.2637 262.571 20.9009 260.833 19.3433C259.488 18.1388 259.16 15.0035 259.751 13.2971C260.744 10.4296 267.103 8.92833 269.88 8.10307C273.314 7.11014 276.927 6.89548 280.454 7.47468C283.982 8.05389 287.336 9.4124 290.273 11.4515C292.027 12.6885 293.665 14.2429 294.413 16.2556C295.16 18.2683 294.8 20.8076 293.114 22.1362C294.421 23.5206 295.341 25.2242 295.782 27.0764C296.224 28.9286 296.171 30.8644 295.629 32.6898C294.796 35.3743 290.823 37.9481 288.818 39.1025Z" fill="#2F2E41"/>
<path d="M157.552 81.9903H26.6536C26.4965 81.9903 26.3458 81.9278 26.2348 81.8167C26.1237 81.7055 26.0613 81.5548 26.0613 81.3976C26.0613 81.2404 26.1237 81.0897 26.2348 80.9785C26.3458 80.8674 26.4965 80.8049 26.6536 80.8049H157.552C157.709 80.8049 157.86 80.8674 157.971 80.9785C158.082 81.0897 158.145 81.2404 158.145 81.3976C158.145 81.5548 158.082 81.7055 157.971 81.8167C157.86 81.9278 157.709 81.9903 157.552 81.9903Z" fill="#E6E6E6"/>
<path d="M128.884 81.9903H54.4917C54.3346 81.9903 54.184 81.9278 54.0729 81.8167C53.9618 81.7055 53.8994 81.5548 53.8994 81.3976C53.8994 81.2404 53.9618 81.0897 54.0729 80.9785C54.184 80.8674 54.3346 80.8049 54.4917 80.8049H128.884C129.041 80.8049 129.192 80.8674 129.303 80.9785C129.414 81.0897 129.476 81.2404 129.476 81.3976C129.476 81.5548 129.414 81.7055 129.303 81.8167C129.192 81.9278 129.041 81.9903 128.884 81.9903Z" fill="#3F3D56"/>
<path d="M92.3991 81.9902C92.242 81.9902 92.0913 81.9278 91.9803 81.8166C91.8692 81.7055 91.8068 81.5547 91.8068 81.3975V44.0585C91.8068 43.9013 91.8692 43.7506 91.9803 43.6394C92.0913 43.5283 92.242 43.4658 92.3991 43.4658C92.5562 43.4658 92.7068 43.5283 92.8179 43.6394C92.929 43.7506 92.9914 43.9013 92.9914 44.0585V81.3975C92.9914 81.5547 92.929 81.7055 92.8179 81.8166C92.7068 81.9278 92.5562 81.9902 92.3991 81.9902Z" fill="#3F3D56"/>
<path d="M129.714 81.9901C129.557 81.9901 129.406 81.9277 129.295 81.8165C129.184 81.7054 129.122 81.5546 129.122 81.3974V6.71939C129.122 6.5622 129.184 6.41145 129.295 6.3003C129.406 6.18915 129.557 6.12671 129.714 6.12671C129.871 6.12671 130.022 6.18915 130.133 6.3003C130.244 6.41145 130.306 6.5622 130.306 6.71939V81.3974C130.306 81.5546 130.244 81.7054 130.133 81.8165C130.022 81.9277 129.871 81.9901 129.714 81.9901Z" fill="#3F3D56"/>
<path d="M6.51532 13.239C10.1136 13.239 13.0306 10.3201 13.0306 6.71946C13.0306 3.11884 10.1136 0.199951 6.51532 0.199951C2.91701 0.199951 0 3.11884 0 6.71946C0 10.3201 2.91701 13.239 6.51532 13.239Z" fill="#E6E6E6"/>
<path d="M6.51532 50.5781C10.1136 50.5781 13.0306 47.6592 13.0306 44.0586C13.0306 40.4579 10.1136 37.5391 6.51532 37.5391C2.91701 37.5391 0 40.4579 0 44.0586C0 47.6592 2.91701 50.5781 6.51532 50.5781Z" fill="#E6E6E6"/>
<path d="M6.51532 87.917C10.1136 87.917 13.0306 84.9981 13.0306 81.3974C13.0306 77.7968 10.1136 74.8779 6.51532 74.8779C2.91701 74.8779 0 77.7968 0 81.3974C0 84.9981 2.91701 87.917 6.51532 87.917Z" fill="#E6E6E6"/>
<path d="M157.552 7.31207H26.6536C26.4965 7.31207 26.3458 7.24962 26.2348 7.13847C26.1237 7.02732 26.0613 6.87658 26.0613 6.71939C26.0613 6.5622 26.1237 6.41145 26.2348 6.3003C26.3458 6.18915 26.4965 6.12671 26.6536 6.12671H157.552C157.709 6.12671 157.86 6.18915 157.971 6.3003C158.082 6.41145 158.145 6.5622 158.145 6.71939C158.145 6.87658 158.082 7.02732 157.971 7.13847C157.86 7.24962 157.709 7.31207 157.552 7.31207Z" fill="#E6E6E6"/>
<path d="M157.552 44.6512H26.6536C26.4965 44.6512 26.3458 44.5887 26.2348 44.4776C26.1237 44.3664 26.0613 44.2157 26.0613 44.0585C26.0613 43.9013 26.1237 43.7506 26.2348 43.6394C26.3458 43.5283 26.4965 43.4658 26.6536 43.4658H157.552C157.709 43.4658 157.86 43.5283 157.971 43.6394C158.082 43.7506 158.145 43.9013 158.145 44.0585C158.145 44.2157 158.082 44.3664 157.971 44.4776C157.86 44.5887 157.709 44.6512 157.552 44.6512Z" fill="#E6E6E6"/>
<path d="M54.7879 87.917C58.3862 87.917 61.3032 84.9981 61.3032 81.3974C61.3032 77.7968 58.3862 74.8779 54.7879 74.8779C51.1896 74.8779 48.2726 77.7968 48.2726 81.3974C48.2726 84.9981 51.1896 87.917 54.7879 87.917Z" fill="#6DBF5A"/>
<path d="M92.3991 50.5781C95.9974 50.5781 98.9144 47.6592 98.9144 44.0586C98.9144 40.4579 95.9974 37.5391 92.3991 37.5391C88.8008 37.5391 85.8838 40.4579 85.8838 44.0586C85.8838 47.6592 88.8008 50.5781 92.3991 50.5781Z" fill="#6DBF5A"/>
<path d="M92.3991 87.917C95.9974 87.917 98.9144 84.9981 98.9144 81.3974C98.9144 77.7968 95.9974 74.8779 92.3991 74.8779C88.8008 74.8779 85.8838 77.7968 85.8838 81.3974C85.8838 84.9981 88.8008 87.917 92.3991 87.917Z" fill="#6DBF5A"/>
<path d="M129.714 13.239C133.312 13.239 136.229 10.3201 136.229 6.71946C136.229 3.11884 133.312 0.199951 129.714 0.199951C126.116 0.199951 123.199 3.11884 123.199 6.71946C123.199 10.3201 126.116 13.239 129.714 13.239Z" fill="#6DBF5A"/>
<path d="M129.714 50.5781C133.312 50.5781 136.229 47.6592 136.229 44.0586C136.229 40.4579 133.312 37.5391 129.714 37.5391C126.116 37.5391 123.199 40.4579 123.199 44.0586C123.199 47.6592 126.116 50.5781 129.714 50.5781Z" fill="#6DBF5A"/>
<path d="M129.714 87.917C133.312 87.917 136.229 84.9981 136.229 81.3974C136.229 77.7968 133.312 74.8779 129.714 74.8779C126.116 74.8779 123.199 77.7968 123.199 81.3974C123.199 84.9981 126.116 87.917 129.714 87.917Z" fill="#6DBF5A"/>
<path d="M412.408 243.2H152.387C152.23 243.2 152.079 243.138 151.968 243.026C151.857 242.915 151.795 242.765 151.795 242.607C151.795 242.45 151.857 242.299 151.968 242.188C152.079 242.077 152.23 242.015 152.387 242.015H412.408C412.565 242.015 412.715 242.077 412.827 242.188C412.938 242.299 413 242.45 413 242.607C413 242.765 412.938 242.915 412.827 243.026C412.715 243.138 412.565 243.2 412.408 243.2Z" fill="#3F3D56"/>
<path d="M192.498 190.482C192.106 190.462 191.711 190.452 191.314 190.451C185.344 190.451 179.619 192.824 175.398 197.048C171.177 201.271 168.806 207 168.806 212.973H192.498V190.482Z" fill="#6DBF5A"/>
<path d="M197.236 243.2C191.112 243.193 185.241 240.756 180.91 236.422C176.58 232.089 174.144 226.214 174.137 220.085C174.137 219.928 174.199 219.777 174.31 219.666C174.421 219.555 174.572 219.493 174.729 219.493H197.829V197.595C197.829 197.514 197.845 197.435 197.877 197.361C197.909 197.287 197.955 197.22 198.013 197.165C198.071 197.109 198.14 197.066 198.216 197.038C198.291 197.01 198.371 196.998 198.452 197.003C204.465 197.32 210.116 199.973 214.202 204.399C218.289 208.824 220.487 214.671 220.328 220.694C220.17 226.717 217.667 232.44 213.354 236.644C209.041 240.847 203.258 243.2 197.236 243.2ZM175.329 220.678C175.444 224.913 176.782 229.023 179.181 232.514C181.58 236.004 184.939 238.724 188.85 240.345C192.761 241.966 197.058 242.419 201.221 241.648C205.384 240.878 209.235 238.918 212.308 236.005C215.381 233.091 217.546 229.35 218.539 225.232C219.533 221.114 219.314 216.796 217.907 212.801C216.501 208.805 213.969 205.302 210.616 202.716C207.263 200.13 203.233 198.571 199.013 198.228V220.085C199.013 220.242 198.951 220.393 198.84 220.504C198.729 220.616 198.578 220.678 198.421 220.678H175.329Z" fill="#3F3D56"/>
</g>
<defs>
<clipPath id="clip0_717_458">
<rect width="413" height="243" fill="white" transform="translate(0 0.199951)"/>
</clipPath>
</defs>
</svg>
