<svg width="241" height="185" viewBox="0 0 241 185" fill="none" xmlns="http://www.w3.org/2000/svg">
<g clip-path="url(#clip0_717_301)">
<path d="M34.8822 109.212C43.2813 109.212 50.0902 102.384 50.0902 93.9625C50.0902 85.5406 43.2813 78.7134 34.8822 78.7134C26.4831 78.7134 19.6743 85.5406 19.6743 93.9625C19.6743 102.384 26.4831 109.212 34.8822 109.212Z" fill="#FF6584"/>
<path d="M66.0263 180.096H66.0109C65.4754 180.096 64.962 179.882 64.5833 179.502C64.2047 179.123 63.9917 178.608 63.9911 178.071V59.1757C63.9917 58.6387 64.2047 58.1239 64.5833 57.7442C64.962 57.3646 65.4754 57.151 66.0109 57.1504H165.813C166.348 57.151 166.862 57.3646 167.24 57.7442C167.619 58.1239 167.832 58.6387 167.833 59.1757V151.623C167.832 152.158 167.621 152.67 167.246 153.049C166.871 153.428 166.361 153.644 165.829 153.648L66.0263 180.096Z" fill="#F2F2F2"/>
<path d="M139.793 40.3525H93.4564V13.4283C93.4571 12.8598 93.6826 12.3147 94.0835 11.9127C94.4845 11.5107 95.028 11.2846 95.595 11.2839H137.654C138.221 11.2846 138.765 11.5107 139.166 11.9127C139.567 12.3147 139.792 12.8598 139.793 13.4283V40.3525ZM93.9317 39.876H139.318V13.4283C139.317 12.9861 139.142 12.5622 138.83 12.2495C138.518 11.9368 138.095 11.761 137.654 11.7605H95.595C95.154 11.761 94.7312 11.9368 94.4194 12.2495C94.1076 12.5622 93.9322 12.9861 93.9317 13.4283V39.876Z" fill="#3F3D56"/>
<path d="M106.645 21.5293H126.605C127.109 21.5293 127.593 21.7301 127.949 22.0876C128.306 22.4451 128.506 22.9299 128.506 23.4354V52.0275H104.744V23.4354C104.744 22.9299 104.944 22.4451 105.3 22.0876C105.657 21.7301 106.14 21.5293 106.645 21.5293Z" fill="#E6E6E6"/>
<path d="M110.565 11.7603H100.823V1.99138C100.823 1.67553 100.948 1.37272 101.171 1.14938C101.394 0.926042 101.696 0.80041 102.011 0.800049H109.377C109.692 0.80041 109.994 0.926042 110.217 1.14938C110.44 1.37272 110.565 1.67553 110.565 1.99138V11.7603ZM101.298 11.2838H110.09V1.99138C110.09 1.80187 110.015 1.62018 109.881 1.48617C109.747 1.35217 109.566 1.27679 109.377 1.27658H102.011C101.822 1.27679 101.641 1.35217 101.507 1.48617C101.373 1.62018 101.298 1.80187 101.298 1.99138V11.2838Z" fill="#3F3D56"/>
<path d="M190.623 155.397C190.528 155.397 190.436 155.397 190.342 155.395C184.463 155.33 178.81 153.114 174.446 149.165C174.284 149.018 174.124 148.869 173.966 148.717L173.892 148.647V102.983L173.915 102.934C174.072 102.6 174.232 102.27 174.391 101.941C179.334 91.8788 185.098 86.3381 190.623 86.3381C198.591 86.3381 204.77 97.2969 207.744 103.829C211.88 112.913 214.768 124.169 214.768 131.201C214.766 137.573 212.259 143.686 207.791 148.215C203.322 152.745 197.253 155.324 190.899 155.395C190.81 155.397 190.716 155.397 190.623 155.397ZM174.367 148.443C174.499 148.567 174.632 148.69 174.765 148.812C179.044 152.684 184.587 154.855 190.35 154.919C190.446 154.921 190.537 154.918 190.629 154.921C190.716 154.921 190.804 154.921 190.89 154.919C203.796 154.775 214.293 144.136 214.293 131.201C214.293 124.23 211.422 113.055 207.312 104.027C204.385 97.5988 198.325 86.8147 190.623 86.8147C185.289 86.8147 179.676 92.2608 174.818 102.15C174.668 102.461 174.516 102.773 174.367 103.089L174.367 148.443Z" fill="#3F3D56"/>
<path d="M190.622 184.287C190.55 184.287 190.48 184.258 190.429 184.206C190.377 184.155 190.349 184.085 190.349 184.013V128.051C190.348 128.015 190.355 127.979 190.369 127.946C190.383 127.912 190.403 127.882 190.428 127.856C190.454 127.831 190.484 127.81 190.517 127.796C190.55 127.783 190.586 127.775 190.622 127.775C190.658 127.775 190.694 127.783 190.727 127.796C190.76 127.81 190.791 127.831 190.816 127.856C190.841 127.882 190.861 127.912 190.875 127.946C190.889 127.979 190.896 128.015 190.895 128.051V184.013C190.895 184.085 190.867 184.155 190.815 184.206C190.764 184.258 190.695 184.287 190.622 184.287Z" fill="#CCCCCC"/>
<path d="M48.7607 184.287C48.6882 184.287 48.6187 184.258 48.5674 184.206C48.5161 184.155 48.4873 184.085 48.4873 184.013V128.051C48.4871 128.015 48.494 127.979 48.5077 127.946C48.5213 127.912 48.5414 127.882 48.5668 127.856C48.5922 127.831 48.6224 127.81 48.6557 127.796C48.689 127.783 48.7247 127.775 48.7607 127.775C48.7967 127.775 48.8324 127.783 48.8657 127.796C48.899 127.81 48.9292 127.831 48.9546 127.856C48.98 127.882 49.0001 127.912 49.0137 127.946C49.0274 127.979 49.0343 128.015 49.0341 128.051V184.013C49.0341 184.085 49.0053 184.155 48.954 184.206C48.9027 184.258 48.8332 184.287 48.7607 184.287Z" fill="#CCCCCC"/>
<path d="M190.622 138.507C190.583 138.507 190.544 138.498 190.509 138.482C190.473 138.466 190.441 138.442 190.416 138.412L176.666 122.513C176.618 122.458 176.595 122.386 176.6 122.314C176.605 122.241 176.639 122.174 176.694 122.126C176.748 122.079 176.82 122.055 176.892 122.06C176.964 122.065 177.031 122.099 177.079 122.153L190.829 138.053C190.863 138.093 190.885 138.142 190.893 138.194C190.9 138.246 190.893 138.299 190.871 138.346C190.849 138.394 190.814 138.435 190.77 138.463C190.726 138.492 190.675 138.507 190.622 138.507Z" fill="#CCCCCC"/>
<path d="M190.622 147.683C190.568 147.683 190.515 147.667 190.47 147.636C190.425 147.606 190.39 147.564 190.37 147.513C190.349 147.463 190.343 147.408 190.354 147.355C190.365 147.302 190.391 147.253 190.429 147.215L198.242 139.381C198.293 139.329 198.362 139.301 198.435 139.301C198.507 139.301 198.577 139.33 198.628 139.381C198.679 139.432 198.708 139.502 198.708 139.575C198.708 139.647 198.679 139.717 198.628 139.768L190.815 147.602C190.79 147.628 190.76 147.648 190.727 147.662C190.694 147.676 190.658 147.683 190.622 147.683Z" fill="#CCCCCC"/>
<path d="M215.916 184.4H195.479V184.162C195.479 182.816 195.743 181.483 196.256 180.239C196.769 178.996 197.522 177.866 198.471 176.914C199.42 175.962 200.546 175.207 201.786 174.691C203.026 174.176 204.356 173.911 205.698 173.911C207.04 173.911 208.369 174.176 209.609 174.691C210.85 175.207 211.976 175.962 212.925 176.914C213.874 177.866 214.627 178.996 215.14 180.239C215.653 181.483 215.917 182.816 215.916 184.162L215.916 184.4ZM195.958 183.924H215.438C215.376 181.375 214.323 178.951 212.503 177.17C210.683 175.389 208.241 174.392 205.698 174.392C203.155 174.392 200.713 175.389 198.893 177.17C197.073 178.951 196.02 181.375 195.958 183.924Z" fill="#3F3D56"/>
<path d="M205.698 178.346C205.626 178.346 205.558 178.375 205.507 178.426C205.457 178.476 205.428 178.545 205.428 178.617V181.49L202.637 179.088C202.61 179.065 202.579 179.047 202.545 179.036C202.511 179.025 202.476 179.02 202.44 179.023C202.405 179.026 202.37 179.035 202.339 179.051C202.307 179.067 202.279 179.089 202.256 179.116C202.233 179.143 202.215 179.175 202.204 179.209C202.193 179.242 202.189 179.278 202.191 179.314C202.194 179.349 202.204 179.384 202.22 179.415C202.236 179.447 202.258 179.475 202.285 179.498L205.428 182.203V183.891C205.428 183.927 205.435 183.962 205.448 183.995C205.462 184.028 205.482 184.058 205.507 184.083C205.532 184.108 205.562 184.128 205.595 184.142C205.627 184.156 205.662 184.163 205.698 184.163C205.733 184.163 205.769 184.156 205.801 184.142C205.834 184.128 205.864 184.108 205.889 184.083C205.914 184.058 205.934 184.028 205.947 183.995C205.961 183.962 205.968 183.927 205.968 183.891V178.617C205.968 178.545 205.939 178.476 205.889 178.426C205.838 178.375 205.769 178.346 205.698 178.346Z" fill="#3F3D56"/>
<path d="M44.5897 184.4H24.1528V184.162C24.1522 182.816 24.416 181.483 24.9293 180.239C25.4425 178.996 26.1951 177.866 27.144 176.914C28.0929 175.962 29.2196 175.207 30.4597 174.691C31.6998 174.176 33.0289 173.911 34.3713 173.911C35.7136 173.911 37.0427 174.176 38.2828 174.691C39.5229 175.207 40.6496 175.962 41.5985 176.914C42.5475 177.866 43.3 178.996 43.8133 180.239C44.3265 181.483 44.5903 182.816 44.5897 184.162L44.5897 184.4ZM24.6309 183.924H44.1116C44.0496 181.375 42.9962 178.951 41.1763 177.17C39.3563 175.389 36.9142 174.392 34.3713 174.392C31.8283 174.392 29.3862 175.389 27.5663 177.17C25.7464 178.951 24.6929 181.375 24.6309 183.924Z" fill="#3F3D56"/>
<path d="M34.3713 178.346C34.2997 178.346 34.2311 178.375 34.1805 178.426C34.1299 178.476 34.1015 178.545 34.1015 178.617V181.49L31.31 179.088C31.2831 179.065 31.252 179.047 31.2183 179.036C31.1846 179.025 31.149 179.02 31.1136 179.023C31.0782 179.026 31.0437 179.035 31.0121 179.051C30.9804 179.067 30.9522 179.089 30.9291 179.116C30.906 179.143 30.8884 179.175 30.8774 179.209C30.8664 179.242 30.8621 179.278 30.8648 179.314C30.8676 179.349 30.8772 179.384 30.8933 179.415C30.9094 179.447 30.9316 179.475 30.9586 179.498L34.1015 182.203V183.891C34.1014 183.927 34.1083 183.962 34.1218 183.995C34.1353 184.028 34.1552 184.058 34.1802 184.083C34.2053 184.108 34.2351 184.128 34.2678 184.142C34.3006 184.156 34.3358 184.163 34.3713 184.163C34.4068 184.163 34.4419 184.156 34.4747 184.142C34.5075 184.128 34.5372 184.108 34.5623 184.083C34.5874 184.058 34.6072 184.028 34.6207 183.995C34.6342 183.962 34.6411 183.927 34.641 183.891V178.617C34.641 178.545 34.6126 178.476 34.562 178.426C34.5114 178.375 34.4428 178.346 34.3713 178.346Z" fill="#3F3D56"/>
<path d="M48.9994 155.397C48.9047 155.397 48.8125 155.397 48.7178 155.395C42.365 155.323 36.2966 152.743 31.8289 148.214C27.3611 143.685 24.8543 137.572 24.8521 131.201C24.8521 124.169 27.7406 112.913 31.8766 103.829C34.8509 97.2969 41.0306 86.3381 48.9994 86.3381C52.2817 86.3381 55.5869 88.214 58.8232 91.9138C58.9836 92.0962 59.1445 92.2841 59.303 92.4767L59.3574 92.5427V153.059L59.2234 153.124C59.0634 153.202 58.9012 153.275 58.7389 153.345C55.7568 154.669 52.5362 155.366 49.2752 155.395C49.1865 155.397 49.0917 155.397 48.9994 155.397ZM48.9994 86.8147C41.2964 86.8147 35.2359 97.5988 32.3089 104.027C28.1982 113.055 25.3273 124.23 25.3273 131.201C25.3273 144.133 35.8241 154.773 48.7264 154.919C48.8225 154.921 48.9122 154.922 49.0057 154.921C49.0919 154.921 49.1804 154.921 49.2666 154.919C52.4649 154.891 55.6236 154.207 58.5485 152.909C58.6606 152.86 58.7719 152.811 58.8821 152.759V92.7143C58.7446 92.5487 58.6054 92.3867 58.4663 92.2284C55.3238 88.636 52.1388 86.8147 48.9994 86.8147Z" fill="#3F3D56"/>
<path d="M48.9985 138.507C48.9593 138.507 48.9205 138.498 48.8848 138.482C48.8491 138.466 48.8174 138.442 48.7917 138.412L35.042 122.513C34.9946 122.458 34.971 122.386 34.9762 122.314C34.9814 122.241 35.015 122.174 35.0698 122.126C35.1245 122.079 35.1958 122.055 35.268 122.06C35.3403 122.065 35.4076 122.099 35.4551 122.153L49.2049 138.053C49.2392 138.093 49.2614 138.142 49.2689 138.194C49.2764 138.246 49.2688 138.299 49.247 138.346C49.2253 138.394 49.1903 138.435 49.1462 138.463C49.1021 138.492 49.0509 138.507 48.9985 138.507Z" fill="#CCCCCC"/>
<path d="M48.9983 147.683C48.9443 147.683 48.8914 147.667 48.8465 147.636C48.8015 147.606 48.7665 147.564 48.7458 147.513C48.7251 147.463 48.7197 147.408 48.7302 147.355C48.7408 147.302 48.7668 147.253 48.805 147.215L56.6179 139.381C56.6692 139.329 56.7387 139.301 56.8111 139.301C56.8834 139.301 56.9528 139.33 57.004 139.381C57.0551 139.432 57.0839 139.502 57.084 139.575C57.0841 139.647 57.0555 139.717 57.0045 139.768L49.1916 147.602C49.1663 147.628 49.1362 147.648 49.103 147.662C49.0698 147.676 49.0342 147.683 48.9983 147.683Z" fill="#CCCCCC"/>
<path d="M70.4687 42.2587L70.6446 42.6065C70.7225 42.7566 70.7633 42.9233 70.7634 43.0926V52.5041H79.0802V43.0926C79.0803 42.9233 79.1211 42.7566 79.199 42.6065L79.3749 42.2587H70.4687ZM78.605 43.0926V52.0276H71.2386V43.0926C71.2388 42.9722 71.2244 42.8522 71.1958 42.7352H78.6478C78.6192 42.8522 78.6048 42.9722 78.605 43.0926ZM80.9241 42.2587L81.1 42.6065C81.178 42.7566 81.2187 42.9233 81.2188 43.0926V52.5041H89.5357V43.0926C89.5358 42.9233 89.5765 42.7566 89.6545 42.6065L89.8304 42.2587H80.9241ZM89.0604 43.0926V52.0276H81.6941V43.0926C81.6942 42.9722 81.6798 42.8522 81.6513 42.7352H89.1032C89.0747 42.8522 89.0603 42.9722 89.0604 43.0926ZM91.3796 42.2587L91.5555 42.6065C91.6334 42.7566 91.6742 42.9233 91.6743 43.0926V52.5041H99.9911V43.0926C99.9912 42.9233 100.032 42.7566 100.11 42.6065L100.286 42.2587H91.3796ZM99.5159 43.0926V52.0276H92.1495V43.0926C92.1497 42.9722 92.1353 42.8522 92.1067 42.7352H99.5587C99.5301 42.8522 99.5157 42.9722 99.5159 43.0926ZM101.835 42.2587L102.011 42.6065C102.089 42.7566 102.13 42.9233 102.13 43.0926V52.5041H110.447V43.0926C110.447 42.9233 110.487 42.7566 110.565 42.6065L110.741 42.2587H101.835ZM109.971 43.0926V52.0276H102.605V43.0926C102.605 42.9722 102.591 42.8522 102.562 42.7352H110.014C109.986 42.8522 109.971 42.9722 109.971 43.0926ZM112.29 42.2587L112.466 42.6065C112.544 42.7566 112.585 42.9233 112.585 43.0926V52.5041H120.902V43.0926C120.902 42.9233 120.943 42.7566 121.021 42.6065L121.197 42.2587H112.29ZM120.427 43.0926V52.0276H113.06V43.0926C113.061 42.9722 113.046 42.8522 113.018 42.7352H120.47C120.441 42.8522 120.427 42.9722 120.427 43.0926ZM122.746 42.2587L122.922 42.6065C123 42.7566 123.041 42.9233 123.041 43.0926V52.5041H131.357V43.0926C131.358 42.9233 131.398 42.7566 131.476 42.6065L131.652 42.2587H122.746ZM130.882 43.0926V52.0276H123.516V43.0926C123.516 42.9722 123.502 42.8522 123.473 42.7352H130.925C130.896 42.8522 130.882 42.9722 130.882 43.0926ZM133.201 42.2587L133.377 42.6065C133.455 42.7566 133.496 42.9233 133.496 43.0926V52.5041H141.813V43.0926C141.813 42.9233 141.854 42.7566 141.932 42.6065L142.108 42.2587H133.201ZM141.338 43.0926V52.0276H133.971V43.0926C133.971 42.9722 133.957 42.8522 133.928 42.7352H141.38C141.352 42.8522 141.338 42.9722 141.338 43.0926ZM143.657 42.2587L143.833 42.6065C143.911 42.7566 143.951 42.9233 143.952 43.0926V52.5041H152.268V43.0926C152.268 42.9233 152.309 42.7566 152.387 42.6065L152.563 42.2587H143.657ZM151.793 43.0926V52.0276H144.427V43.0926C144.427 42.9722 144.413 42.8522 144.384 42.7352H151.836C151.807 42.8522 151.793 42.9722 151.793 43.0926ZM154.112 42.2587L154.288 42.6065C154.366 42.7566 154.407 42.9233 154.407 43.0926V52.5041H162.724V43.0926C162.724 42.9233 162.765 42.7566 162.843 42.6065L163.019 42.2587H154.112ZM162.249 43.0926V52.0276H154.882V43.0926C154.882 42.9722 154.868 42.8522 154.839 42.7352H162.291C162.263 42.8522 162.248 42.9722 162.249 43.0926ZM154.112 42.2587L154.288 42.6065C154.366 42.7566 154.407 42.9233 154.407 43.0926V52.5041H162.724V43.0926C162.724 42.9233 162.765 42.7566 162.843 42.6065L163.019 42.2587H154.112ZM162.249 43.0926V52.0276H154.882V43.0926C154.882 42.9722 154.868 42.8522 154.839 42.7352H162.291C162.263 42.8522 162.248 42.9722 162.249 43.0926ZM143.657 42.2587L143.833 42.6065C143.911 42.7566 143.951 42.9233 143.952 43.0926V52.5041H152.268V43.0926C152.268 42.9233 152.309 42.7566 152.387 42.6065L152.563 42.2587H143.657ZM151.793 43.0926V52.0276H144.427V43.0926C144.427 42.9722 144.413 42.8522 144.384 42.7352H151.836C151.807 42.8522 151.793 42.9722 151.793 43.0926ZM133.201 42.2587L133.377 42.6065C133.455 42.7566 133.496 42.9233 133.496 43.0926V52.5041H141.813V43.0926C141.813 42.9233 141.854 42.7566 141.932 42.6065L142.108 42.2587H133.201ZM141.338 43.0926V52.0276H133.971V43.0926C133.971 42.9722 133.957 42.8522 133.928 42.7352H141.38C141.352 42.8522 141.338 42.9722 141.338 43.0926ZM122.746 42.2587L122.922 42.6065C123 42.7566 123.041 42.9233 123.041 43.0926V52.5041H131.357V43.0926C131.358 42.9233 131.398 42.7566 131.476 42.6065L131.652 42.2587H122.746ZM130.882 43.0926V52.0276H123.516V43.0926C123.516 42.9722 123.502 42.8522 123.473 42.7352H130.925C130.896 42.8522 130.882 42.9722 130.882 43.0926ZM112.29 42.2587L112.466 42.6065C112.544 42.7566 112.585 42.9233 112.585 43.0926V52.5041H120.902V43.0926C120.902 42.9233 120.943 42.7566 121.021 42.6065L121.197 42.2587H112.29ZM120.427 43.0926V52.0276H113.06V43.0926C113.061 42.9722 113.046 42.8522 113.018 42.7352H120.47C120.441 42.8522 120.427 42.9722 120.427 43.0926ZM101.835 42.2587L102.011 42.6065C102.089 42.7566 102.13 42.9233 102.13 43.0926V52.5041H110.447V43.0926C110.447 42.9233 110.487 42.7566 110.565 42.6065L110.741 42.2587H101.835ZM109.971 43.0926V52.0276H102.605V43.0926C102.605 42.9722 102.591 42.8522 102.562 42.7352H110.014C109.986 42.8522 109.971 42.9722 109.971 43.0926ZM91.3796 42.2587L91.5555 42.6065C91.6334 42.7566 91.6742 42.9233 91.6743 43.0926V52.5041H99.9911V43.0926C99.9912 42.9233 100.032 42.7566 100.11 42.6065L100.286 42.2587H91.3796ZM99.5159 43.0926V52.0276H92.1495V43.0926C92.1497 42.9722 92.1353 42.8522 92.1067 42.7352H99.5587C99.5301 42.8522 99.5157 42.9722 99.5159 43.0926ZM80.9241 42.2587L81.1 42.6065C81.178 42.7566 81.2187 42.9233 81.2188 43.0926V52.5041H89.5357V43.0926C89.5358 42.9233 89.5765 42.7566 89.6545 42.6065L89.8304 42.2587H80.9241ZM89.0604 43.0926V52.0276H81.6941V43.0926C81.6942 42.9722 81.6798 42.8522 81.6513 42.7352H89.1032C89.0747 42.8522 89.0603 42.9722 89.0604 43.0926ZM70.4687 42.2587L70.6446 42.6065C70.7225 42.7566 70.7633 42.9233 70.7634 43.0926V52.5041H79.0802V43.0926C79.0803 42.9233 79.1211 42.7566 79.199 42.6065L79.3749 42.2587H70.4687ZM78.605 43.0926V52.0276H71.2386V43.0926C71.2388 42.9722 71.2244 42.8522 71.1958 42.7352H78.6478C78.6192 42.8522 78.6048 42.9722 78.605 43.0926ZM154.112 42.2587L154.288 42.6065C154.366 42.7566 154.407 42.9233 154.407 43.0926V52.5041H162.724V43.0926C162.724 42.9233 162.765 42.7566 162.843 42.6065L163.019 42.2587H154.112ZM162.249 43.0926V52.0276H154.882V43.0926C154.882 42.9722 154.868 42.8522 154.839 42.7352H162.291C162.263 42.8522 162.248 42.9722 162.249 43.0926ZM143.657 42.2587L143.833 42.6065C143.911 42.7566 143.951 42.9233 143.952 43.0926V52.5041H152.268V43.0926C152.268 42.9233 152.309 42.7566 152.387 42.6065L152.563 42.2587H143.657ZM151.793 43.0926V52.0276H144.427V43.0926C144.427 42.9722 144.413 42.8522 144.384 42.7352H151.836C151.807 42.8522 151.793 42.9722 151.793 43.0926ZM133.201 42.2587L133.377 42.6065C133.455 42.7566 133.496 42.9233 133.496 43.0926V52.5041H141.813V43.0926C141.813 42.9233 141.854 42.7566 141.932 42.6065L142.108 42.2587H133.201ZM141.338 43.0926V52.0276H133.971V43.0926C133.971 42.9722 133.957 42.8522 133.928 42.7352H141.38C141.352 42.8522 141.338 42.9722 141.338 43.0926ZM122.746 42.2587L122.922 42.6065C123 42.7566 123.041 42.9233 123.041 43.0926V52.5041H131.357V43.0926C131.358 42.9233 131.398 42.7566 131.476 42.6065L131.652 42.2587H122.746ZM130.882 43.0926V52.0276H123.516V43.0926C123.516 42.9722 123.502 42.8522 123.473 42.7352H130.925C130.896 42.8522 130.882 42.9722 130.882 43.0926ZM112.29 42.2587L112.466 42.6065C112.544 42.7566 112.585 42.9233 112.585 43.0926V52.5041H120.902V43.0926C120.902 42.9233 120.943 42.7566 121.021 42.6065L121.197 42.2587H112.29ZM120.427 43.0926V52.0276H113.06V43.0926C113.061 42.9722 113.046 42.8522 113.018 42.7352H120.47C120.441 42.8522 120.427 42.9722 120.427 43.0926ZM101.835 42.2587L102.011 42.6065C102.089 42.7566 102.13 42.9233 102.13 43.0926V52.5041H110.447V43.0926C110.447 42.9233 110.487 42.7566 110.565 42.6065L110.741 42.2587H101.835ZM109.971 43.0926V52.0276H102.605V43.0926C102.605 42.9722 102.591 42.8522 102.562 42.7352H110.014C109.986 42.8522 109.971 42.9722 109.971 43.0926ZM91.3796 42.2587L91.5555 42.6065C91.6334 42.7566 91.6742 42.9233 91.6743 43.0926V52.5041H99.9911V43.0926C99.9912 42.9233 100.032 42.7566 100.11 42.6065L100.286 42.2587H91.3796ZM99.5159 43.0926V52.0276H92.1495V43.0926C92.1497 42.9722 92.1353 42.8522 92.1067 42.7352H99.5587C99.5301 42.8522 99.5157 42.9722 99.5159 43.0926ZM80.9241 42.2587L81.1 42.6065C81.178 42.7566 81.2187 42.9233 81.2188 43.0926V52.5041H89.5357V43.0926C89.5358 42.9233 89.5765 42.7566 89.6545 42.6065L89.8304 42.2587H80.9241ZM89.0604 43.0926V52.0276H81.6941V43.0926C81.6942 42.9722 81.6798 42.8522 81.6513 42.7352H89.1032C89.0747 42.8522 89.0603 42.9722 89.0604 43.0926ZM70.4687 42.2587L70.6446 42.6065C70.7225 42.7566 70.7633 42.9233 70.7634 43.0926V52.5041H79.0802V43.0926C79.0803 42.9233 79.1211 42.7566 79.199 42.6065L79.3749 42.2587H70.4687ZM78.605 43.0926V52.0276H71.2386V43.0926C71.2388 42.9722 71.2244 42.8522 71.1958 42.7352H78.6478C78.6192 42.8522 78.6048 42.9722 78.605 43.0926ZM154.112 42.2587L154.288 42.6065C154.366 42.7566 154.407 42.9233 154.407 43.0926V52.5041H162.724V43.0926C162.724 42.9233 162.765 42.7566 162.843 42.6065L163.019 42.2587H154.112ZM162.249 43.0926V52.0276H154.882V43.0926C154.882 42.9722 154.868 42.8522 154.839 42.7352H162.291C162.263 42.8522 162.248 42.9722 162.249 43.0926ZM143.657 42.2587L143.833 42.6065C143.911 42.7566 143.951 42.9233 143.952 43.0926V52.5041H152.268V43.0926C152.268 42.9233 152.309 42.7566 152.387 42.6065L152.563 42.2587H143.657ZM151.793 43.0926V52.0276H144.427V43.0926C144.427 42.9722 144.413 42.8522 144.384 42.7352H151.836C151.807 42.8522 151.793 42.9722 151.793 43.0926ZM133.201 42.2587L133.377 42.6065C133.455 42.7566 133.496 42.9233 133.496 43.0926V52.5041H141.813V43.0926C141.813 42.9233 141.854 42.7566 141.932 42.6065L142.108 42.2587H133.201ZM141.338 43.0926V52.0276H133.971V43.0926C133.971 42.9722 133.957 42.8522 133.928 42.7352H141.38C141.352 42.8522 141.338 42.9722 141.338 43.0926ZM122.746 42.2587L122.922 42.6065C123 42.7566 123.041 42.9233 123.041 43.0926V52.5041H131.357V43.0926C131.358 42.9233 131.398 42.7566 131.476 42.6065L131.652 42.2587H122.746ZM130.882 43.0926V52.0276H123.516V43.0926C123.516 42.9722 123.502 42.8522 123.473 42.7352H130.925C130.896 42.8522 130.882 42.9722 130.882 43.0926ZM112.29 42.2587L112.466 42.6065C112.544 42.7566 112.585 42.9233 112.585 43.0926V52.5041H120.902V43.0926C120.902 42.9233 120.943 42.7566 121.021 42.6065L121.197 42.2587H112.29ZM120.427 43.0926V52.0276H113.06V43.0926C113.061 42.9722 113.046 42.8522 113.018 42.7352H120.47C120.441 42.8522 120.427 42.9722 120.427 43.0926ZM101.835 42.2587L102.011 42.6065C102.089 42.7566 102.13 42.9233 102.13 43.0926V52.5041H110.447V43.0926C110.447 42.9233 110.487 42.7566 110.565 42.6065L110.741 42.2587H101.835ZM109.971 43.0926V52.0276H102.605V43.0926C102.605 42.9722 102.591 42.8522 102.562 42.7352H110.014C109.986 42.8522 109.971 42.9722 109.971 43.0926ZM91.3796 42.2587L91.5555 42.6065C91.6334 42.7566 91.6742 42.9233 91.6743 43.0926V52.5041H99.9911V43.0926C99.9912 42.9233 100.032 42.7566 100.11 42.6065L100.286 42.2587H91.3796ZM99.5159 43.0926V52.0276H92.1495V43.0926C92.1497 42.9722 92.1353 42.8522 92.1067 42.7352H99.5587C99.5301 42.8522 99.5157 42.9722 99.5159 43.0926ZM80.9241 42.2587L81.1 42.6065C81.178 42.7566 81.2187 42.9233 81.2188 43.0926V52.5041H89.5357V43.0926C89.5358 42.9233 89.5765 42.7566 89.6545 42.6065L89.8304 42.2587H80.9241ZM89.0604 43.0926V52.0276H81.6941V43.0926C81.6942 42.9722 81.6798 42.8522 81.6513 42.7352H89.1032C89.0747 42.8522 89.0603 42.9722 89.0604 43.0926ZM70.4687 42.2587L70.6446 42.6065C70.7225 42.7566 70.7633 42.9233 70.7634 43.0926V52.5041H79.0802V43.0926C79.0803 42.9233 79.1211 42.7566 79.199 42.6065L79.3749 42.2587H70.4687ZM78.605 43.0926V52.0276H71.2386V43.0926C71.2388 42.9722 71.2244 42.8522 71.1958 42.7352H78.6478C78.6192 42.8522 78.6048 42.9722 78.605 43.0926ZM154.112 42.2587L154.288 42.6065C154.366 42.7566 154.407 42.9233 154.407 43.0926V52.5041H162.724V43.0926C162.724 42.9233 162.765 42.7566 162.843 42.6065L163.019 42.2587H154.112ZM162.249 43.0926V52.0276H154.882V43.0926C154.882 42.9722 154.868 42.8522 154.839 42.7352H162.291C162.263 42.8522 162.248 42.9722 162.249 43.0926ZM143.657 42.2587L143.833 42.6065C143.911 42.7566 143.951 42.9233 143.952 43.0926V52.5041H152.268V43.0926C152.268 42.9233 152.309 42.7566 152.387 42.6065L152.563 42.2587H143.657ZM151.793 43.0926V52.0276H144.427V43.0926C144.427 42.9722 144.413 42.8522 144.384 42.7352H151.836C151.807 42.8522 151.793 42.9722 151.793 43.0926ZM133.201 42.2587L133.377 42.6065C133.455 42.7566 133.496 42.9233 133.496 43.0926V52.5041H141.813V43.0926C141.813 42.9233 141.854 42.7566 141.932 42.6065L142.108 42.2587H133.201ZM141.338 43.0926V52.0276H133.971V43.0926C133.971 42.9722 133.957 42.8522 133.928 42.7352H141.38C141.352 42.8522 141.338 42.9722 141.338 43.0926ZM122.746 42.2587L122.922 42.6065C123 42.7566 123.041 42.9233 123.041 43.0926V52.5041H131.357V43.0926C131.358 42.9233 131.398 42.7566 131.476 42.6065L131.652 42.2587H122.746ZM130.882 43.0926V52.0276H123.516V43.0926C123.516 42.9722 123.502 42.8522 123.473 42.7352H130.925C130.896 42.8522 130.882 42.9722 130.882 43.0926ZM112.29 42.2587L112.466 42.6065C112.544 42.7566 112.585 42.9233 112.585 43.0926V52.5041H120.902V43.0926C120.902 42.9233 120.943 42.7566 121.021 42.6065L121.197 42.2587H112.29ZM120.427 43.0926V52.0276H113.06V43.0926C113.061 42.9722 113.046 42.8522 113.018 42.7352H120.47C120.441 42.8522 120.427 42.9722 120.427 43.0926ZM101.835 42.2587L102.011 42.6065C102.089 42.7566 102.13 42.9233 102.13 43.0926V52.5041H110.447V43.0926C110.447 42.9233 110.487 42.7566 110.565 42.6065L110.741 42.2587H101.835ZM109.971 43.0926V52.0276H102.605V43.0926C102.605 42.9722 102.591 42.8522 102.562 42.7352H110.014C109.986 42.8522 109.971 42.9722 109.971 43.0926ZM91.3796 42.2587L91.5555 42.6065C91.6334 42.7566 91.6742 42.9233 91.6743 43.0926V52.5041H99.9911V43.0926C99.9912 42.9233 100.032 42.7566 100.11 42.6065L100.286 42.2587H91.3796ZM99.5159 43.0926V52.0276H92.1495V43.0926C92.1497 42.9722 92.1353 42.8522 92.1067 42.7352H99.5587C99.5301 42.8522 99.5157 42.9722 99.5159 43.0926ZM80.9241 42.2587L81.1 42.6065C81.178 42.7566 81.2187 42.9233 81.2188 43.0926V52.5041H89.5357V43.0926C89.5358 42.9233 89.5765 42.7566 89.6545 42.6065L89.8304 42.2587H80.9241ZM89.0604 43.0926V52.0276H81.6941V43.0926C81.6942 42.9722 81.6798 42.8522 81.6513 42.7352H89.1032C89.0747 42.8522 89.0603 42.9722 89.0604 43.0926ZM70.4687 42.2587L70.6446 42.6065C70.7225 42.7566 70.7633 42.9233 70.7634 43.0926V52.5041H79.0802V43.0926C79.0803 42.9233 79.1211 42.7566 79.199 42.6065L79.3749 42.2587H70.4687ZM78.605 43.0926V52.0276H71.2386V43.0926C71.2388 42.9722 71.2244 42.8522 71.1958 42.7352H78.6478C78.6192 42.8522 78.6048 42.9722 78.605 43.0926ZM154.112 42.2587L154.288 42.6065C154.366 42.7566 154.407 42.9233 154.407 43.0926V52.5041H162.724V43.0926C162.724 42.9233 162.765 42.7566 162.843 42.6065L163.019 42.2587H154.112ZM162.249 43.0926V52.0276H154.882V43.0926C154.882 42.9722 154.868 42.8522 154.839 42.7352H162.291C162.263 42.8522 162.248 42.9722 162.249 43.0926ZM143.833 42.6065C143.911 42.7566 143.951 42.9233 143.952 43.0926V52.5041H152.268V43.0926C152.268 42.9233 152.309 42.7566 152.387 42.6065L152.563 42.2587H143.657L143.833 42.6065ZM151.836 42.7352C151.807 42.8522 151.793 42.9722 151.793 43.0926V52.0276H144.427V43.0926C144.427 42.9722 144.413 42.8522 144.384 42.7352H151.836ZM133.377 42.6065C133.455 42.7566 133.496 42.9233 133.496 43.0926V52.5041H141.813V43.0926C141.813 42.9233 141.854 42.7566 141.932 42.6065L142.108 42.2587H133.201L133.377 42.6065ZM141.38 42.7352C141.352 42.8522 141.338 42.9722 141.338 43.0926V52.0276H133.971V43.0926C133.971 42.9722 133.957 42.8522 133.928 42.7352H141.38ZM122.922 42.6065C123 42.7566 123.041 42.9233 123.041 43.0926V52.5041H131.357V43.0926C131.358 42.9233 131.398 42.7566 131.476 42.6065L131.652 42.2587H122.746L122.922 42.6065ZM130.925 42.7352C130.896 42.8522 130.882 42.9722 130.882 43.0926V52.0276H123.516V43.0926C123.516 42.9722 123.502 42.8522 123.473 42.7352H130.925ZM112.466 42.6065C112.544 42.7566 112.585 42.9233 112.585 43.0926V52.5041H120.902V43.0926C120.902 42.9233 120.943 42.7566 121.021 42.6065L121.197 42.2587H112.29L112.466 42.6065ZM120.47 42.7352C120.441 42.8522 120.427 42.9722 120.427 43.0926V52.0276H113.06V43.0926C113.061 42.9722 113.046 42.8522 113.018 42.7352H120.47ZM102.011 42.6065C102.089 42.7566 102.13 42.9233 102.13 43.0926V52.5041H110.447V43.0926C110.447 42.9233 110.487 42.7566 110.565 42.6065L110.741 42.2587H101.835L102.011 42.6065ZM110.014 42.7352C109.986 42.8522 109.971 42.9722 109.971 43.0926V52.0276H102.605V43.0926C102.605 42.9722 102.591 42.8522 102.562 42.7352H110.014ZM91.5555 42.6065C91.6334 42.7566 91.6742 42.9233 91.6743 43.0926V52.5041H99.9911V43.0926C99.9912 42.9233 100.032 42.7566 100.11 42.6065L100.286 42.2587H91.3796L91.5555 42.6065ZM99.5587 42.7352C99.5301 42.8522 99.5157 42.9722 99.5159 43.0926V52.0276H92.1495V43.0926C92.1497 42.9722 92.1353 42.8522 92.1067 42.7352H99.5587ZM81.1 42.6065C81.178 42.7566 81.2187 42.9233 81.2188 43.0926V52.5041H89.5357V43.0926C89.5358 42.9233 89.5765 42.7566 89.6545 42.6065L89.8304 42.2587H80.9241L81.1 42.6065ZM89.1032 42.7352C89.0747 42.8522 89.0603 42.9722 89.0604 43.0926V52.0276H81.6941V43.0926C81.6942 42.9722 81.6798 42.8522 81.6513 42.7352H89.1032ZM70.6446 42.6065C70.7225 42.7566 70.7633 42.9233 70.7634 43.0926V52.5041H79.0802V43.0926C79.0803 42.9233 79.1211 42.7566 79.199 42.6065L79.3749 42.2587H70.4687L70.6446 42.6065ZM78.6478 42.7352C78.6192 42.8522 78.6048 42.9722 78.605 43.0926V52.0276H71.2386V43.0926C71.2388 42.9722 71.2244 42.8522 71.1958 42.7352H78.6478ZM154.288 42.6065C154.366 42.7566 154.407 42.9233 154.407 43.0926V52.5041H162.724V43.0926C162.724 42.9233 162.765 42.7566 162.843 42.6065L163.019 42.2587H154.112L154.288 42.6065ZM162.291 42.7352C162.263 42.8522 162.248 42.9722 162.249 43.0926V52.0276H154.882V43.0926C154.882 42.9722 154.868 42.8522 154.839 42.7352H162.291ZM143.833 42.6065C143.911 42.7566 143.951 42.9233 143.952 43.0926V52.5041H152.268V43.0926C152.268 42.9233 152.309 42.7566 152.387 42.6065L152.563 42.2587H143.657L143.833 42.6065ZM151.836 42.7352C151.807 42.8522 151.793 42.9722 151.793 43.0926V52.0276H144.427V43.0926C144.427 42.9722 144.413 42.8522 144.384 42.7352H151.836ZM133.377 42.6065C133.455 42.7566 133.496 42.9233 133.496 43.0926V52.5041H141.813V43.0926C141.813 42.9233 141.854 42.7566 141.932 42.6065L142.108 42.2587H133.201L133.377 42.6065ZM141.38 42.7352C141.352 42.8522 141.338 42.9722 141.338 43.0926V52.0276H133.971V43.0926C133.971 42.9722 133.957 42.8522 133.928 42.7352H141.38ZM122.922 42.6065C123 42.7566 123.041 42.9233 123.041 43.0926V52.5041H131.357V43.0926C131.358 42.9233 131.398 42.7566 131.476 42.6065L131.652 42.2587H122.746L122.922 42.6065ZM130.925 42.7352C130.896 42.8522 130.882 42.9722 130.882 43.0926V52.0276H123.516V43.0926C123.516 42.9722 123.502 42.8522 123.473 42.7352H130.925ZM112.466 42.6065C112.544 42.7566 112.585 42.9233 112.585 43.0926V52.5041H120.902V43.0926C120.902 42.9233 120.943 42.7566 121.021 42.6065L121.197 42.2587H112.29L112.466 42.6065ZM120.47 42.7352C120.441 42.8522 120.427 42.9722 120.427 43.0926V52.0276H113.06V43.0926C113.061 42.9722 113.046 42.8522 113.018 42.7352H120.47ZM102.011 42.6065C102.089 42.7566 102.13 42.9233 102.13 43.0926V52.5041H110.447V43.0926C110.447 42.9233 110.487 42.7566 110.565 42.6065L110.741 42.2587H101.835L102.011 42.6065ZM110.014 42.7352C109.986 42.8522 109.971 42.9722 109.971 43.0926V52.0276H102.605V43.0926C102.605 42.9722 102.591 42.8522 102.562 42.7352H110.014ZM91.5555 42.6065C91.6334 42.7566 91.6742 42.9233 91.6743 43.0926V52.5041H99.9911V43.0926C99.9912 42.9233 100.032 42.7566 100.11 42.6065L100.286 42.2587H91.3796L91.5555 42.6065ZM99.5587 42.7352C99.5301 42.8522 99.5157 42.9722 99.5159 43.0926V52.0276H92.1495V43.0926C92.1497 42.9722 92.1353 42.8522 92.1067 42.7352H99.5587ZM81.1 42.6065C81.178 42.7566 81.2187 42.9233 81.2188 43.0926V52.5041H89.5357V43.0926C89.5358 42.9233 89.5765 42.7566 89.6545 42.6065L89.8304 42.2587H80.9241L81.1 42.6065ZM89.1032 42.7352C89.0747 42.8522 89.0603 42.9722 89.0604 43.0926V52.0276H81.6941V43.0926C81.6942 42.9722 81.6798 42.8522 81.6513 42.7352H89.1032ZM70.6446 42.6065C70.7225 42.7566 70.7633 42.9233 70.7634 43.0926V52.5041H79.0802V43.0926C79.0803 42.9233 79.1211 42.7566 79.199 42.6065L79.3749 42.2587H70.4687L70.6446 42.6065ZM78.6478 42.7352C78.6192 42.8522 78.6048 42.9722 78.605 43.0926V52.0276H71.2386V43.0926C71.2388 42.9722 71.2244 42.8522 71.1958 42.7352H78.6478ZM172.229 53.9337H169.396C169.24 53.3856 168.91 52.9033 168.457 52.5595C168.003 52.2156 167.451 52.029 166.882 52.0276H165.338V43.0926C165.338 42.9008 165.302 42.7107 165.231 42.5327C165.5 42.3737 165.71 42.1303 165.827 41.84C165.945 41.5497 165.964 41.2287 165.881 40.9265C165.799 40.6243 165.619 40.3577 165.371 40.1678C165.122 39.978 164.818 39.8754 164.506 39.876H68.9812C68.6688 39.8754 68.3648 39.978 68.1162 40.1678C67.8677 40.3577 67.6883 40.6243 67.6059 40.9265C67.5235 41.2287 67.5425 41.5497 67.6601 41.84C67.7777 42.1303 67.9873 42.3737 68.2565 42.5327C68.1852 42.7107 68.1489 42.9008 68.1495 43.0926V52.0276H66.605C66.0364 52.029 65.4838 52.2156 65.0303 52.5595C64.5768 52.9033 64.2471 53.3856 64.0909 53.9337H61.0208C60.4539 53.9346 59.9104 54.1608 59.5095 54.5628C59.1086 54.9647 58.8831 55.5097 58.8822 56.0781V181.883C58.8834 182.452 59.1091 182.996 59.5099 183.398C59.9107 183.8 60.454 184.026 61.0208 184.028H172.229C172.796 184.027 173.339 183.801 173.74 183.399C174.141 182.997 174.367 182.452 174.367 181.883V56.0781C174.367 55.5097 174.141 54.9647 173.74 54.5628C173.339 54.1608 172.796 53.9346 172.229 53.9337ZM173.892 181.883C173.892 182.224 173.787 182.556 173.593 182.835C173.399 183.115 173.125 183.328 172.806 183.446C172.622 183.517 172.426 183.552 172.229 183.551H61.0208C60.8235 183.552 60.6277 183.517 60.4434 183.446C60.125 183.328 59.8503 183.115 59.6562 182.835C59.4621 182.556 59.3578 182.224 59.3574 181.883V56.0781C59.3579 55.636 59.5333 55.212 59.8452 54.8993C60.157 54.5866 60.5798 54.4108 61.0208 54.4103H64.4711L64.5092 54.2197C64.6091 53.736 64.8719 53.3015 65.2535 52.9891C65.6352 52.6767 66.1123 52.5055 66.605 52.5041H68.6248V43.0926C68.6248 42.8987 68.6774 42.7085 68.7769 42.5422L68.9241 42.2968L68.6556 42.1967C68.4458 42.1204 68.2695 41.9724 68.1579 41.7786C68.0462 41.5848 68.0063 41.3577 68.0452 41.1374C68.0841 40.917 68.1993 40.7174 68.3705 40.5739C68.5418 40.4303 68.758 40.3519 68.9812 40.3525H164.506C164.729 40.3519 164.945 40.4303 165.117 40.5739C165.288 40.7174 165.403 40.917 165.442 41.1374C165.481 41.3577 165.441 41.5848 165.329 41.7786C165.218 41.9724 165.041 42.1204 164.832 42.1967L164.563 42.2968L164.71 42.5422C164.81 42.7084 164.862 42.8987 164.862 43.0926V52.5041H166.882C167.375 52.5055 167.852 52.6767 168.234 52.9891C168.615 53.3014 168.878 53.736 168.978 54.2197L169.016 54.4103H172.229C172.67 54.4108 173.093 54.5866 173.404 54.8993C173.716 55.212 173.892 55.636 173.892 56.0781L173.892 181.883ZM70.4687 42.2587L70.6446 42.6065C70.7225 42.7566 70.7633 42.9233 70.7634 43.0926V52.5041H79.0802V43.0926C79.0803 42.9233 79.1211 42.7566 79.199 42.6065L79.3749 42.2587H70.4687ZM78.605 43.0926V52.0276H71.2386V43.0926C71.2388 42.9722 71.2244 42.8522 71.1958 42.7352H78.6478C78.6192 42.8522 78.6048 42.9722 78.605 43.0926ZM80.9241 42.2587L81.1 42.6065C81.178 42.7566 81.2187 42.9233 81.2188 43.0926V52.5041H89.5357V43.0926C89.5358 42.9233 89.5765 42.7566 89.6545 42.6065L89.8304 42.2587H80.9241ZM89.0604 43.0926V52.0276H81.6941V43.0926C81.6942 42.9722 81.6798 42.8522 81.6513 42.7352H89.1032C89.0747 42.8522 89.0603 42.9722 89.0604 43.0926ZM91.3796 42.2587L91.5555 42.6065C91.6334 42.7566 91.6742 42.9233 91.6743 43.0926V52.5041H99.9911V43.0926C99.9912 42.9233 100.032 42.7566 100.11 42.6065L100.286 42.2587H91.3796ZM99.5159 43.0926V52.0276H92.1495V43.0926C92.1497 42.9722 92.1353 42.8522 92.1067 42.7352H99.5587C99.5301 42.8522 99.5157 42.9722 99.5159 43.0926ZM101.835 42.2587L102.011 42.6065C102.089 42.7566 102.13 42.9233 102.13 43.0926V52.5041H110.447V43.0926C110.447 42.9233 110.487 42.7566 110.565 42.6065L110.741 42.2587H101.835ZM109.971 43.0926V52.0276H102.605V43.0926C102.605 42.9722 102.591 42.8522 102.562 42.7352H110.014C109.986 42.8522 109.971 42.9722 109.971 43.0926ZM112.29 42.2587L112.466 42.6065C112.544 42.7566 112.585 42.9233 112.585 43.0926V52.5041H120.902V43.0926C120.902 42.9233 120.943 42.7566 121.021 42.6065L121.197 42.2587H112.29ZM120.427 43.0926V52.0276H113.06V43.0926C113.061 42.9722 113.046 42.8522 113.018 42.7352H120.47C120.441 42.8522 120.427 42.9722 120.427 43.0926ZM122.746 42.2587L122.922 42.6065C123 42.7566 123.041 42.9233 123.041 43.0926V52.5041H131.357V43.0926C131.358 42.9233 131.398 42.7566 131.476 42.6065L131.652 42.2587H122.746ZM130.882 43.0926V52.0276H123.516V43.0926C123.516 42.9722 123.502 42.8522 123.473 42.7352H130.925C130.896 42.8522 130.882 42.9722 130.882 43.0926ZM133.201 42.2587L133.377 42.6065C133.455 42.7566 133.496 42.9233 133.496 43.0926V52.5041H141.813V43.0926C141.813 42.9233 141.854 42.7566 141.932 42.6065L142.108 42.2587H133.201ZM141.338 43.0926V52.0276H133.971V43.0926C133.971 42.9722 133.957 42.8522 133.928 42.7352H141.38C141.352 42.8522 141.338 42.9722 141.338 43.0926ZM143.657 42.2587L143.833 42.6065C143.911 42.7566 143.951 42.9233 143.952 43.0926V52.5041H152.268V43.0926C152.268 42.9233 152.309 42.7566 152.387 42.6065L152.563 42.2587H143.657ZM151.793 43.0926V52.0276H144.427V43.0926C144.427 42.9722 144.413 42.8522 144.384 42.7352H151.836C151.807 42.8522 151.793 42.9722 151.793 43.0926ZM154.112 42.2587L154.288 42.6065C154.366 42.7566 154.407 42.9233 154.407 43.0926V52.5041H162.724V43.0926C162.724 42.9233 162.765 42.7566 162.843 42.6065L163.019 42.2587H154.112ZM162.249 43.0926V52.0276H154.882V43.0926C154.882 42.9722 154.868 42.8522 154.839 42.7352H162.291C162.263 42.8522 162.248 42.9722 162.249 43.0926ZM70.4687 42.2587L70.6446 42.6065C70.7225 42.7566 70.7633 42.9233 70.7634 43.0926V52.5041H79.0802V43.0926C79.0803 42.9233 79.1211 42.7566 79.199 42.6065L79.3749 42.2587H70.4687ZM78.605 43.0926V52.0276H71.2386V43.0926C71.2388 42.9722 71.2244 42.8522 71.1958 42.7352H78.6478C78.6192 42.8522 78.6048 42.9722 78.605 43.0926ZM80.9241 42.2587L81.1 42.6065C81.178 42.7566 81.2187 42.9233 81.2188 43.0926V52.5041H89.5357V43.0926C89.5358 42.9233 89.5765 42.7566 89.6545 42.6065L89.8304 42.2587H80.9241ZM89.0604 43.0926V52.0276H81.6941V43.0926C81.6942 42.9722 81.6798 42.8522 81.6513 42.7352H89.1032C89.0747 42.8522 89.0603 42.9722 89.0604 43.0926ZM91.3796 42.2587L91.5555 42.6065C91.6334 42.7566 91.6742 42.9233 91.6743 43.0926V52.5041H99.9911V43.0926C99.9912 42.9233 100.032 42.7566 100.11 42.6065L100.286 42.2587H91.3796ZM99.5159 43.0926V52.0276H92.1495V43.0926C92.1497 42.9722 92.1353 42.8522 92.1067 42.7352H99.5587C99.5301 42.8522 99.5157 42.9722 99.5159 43.0926ZM101.835 42.2587L102.011 42.6065C102.089 42.7566 102.13 42.9233 102.13 43.0926V52.5041H110.447V43.0926C110.447 42.9233 110.487 42.7566 110.565 42.6065L110.741 42.2587H101.835ZM109.971 43.0926V52.0276H102.605V43.0926C102.605 42.9722 102.591 42.8522 102.562 42.7352H110.014C109.986 42.8522 109.971 42.9722 109.971 43.0926ZM112.29 42.2587L112.466 42.6065C112.544 42.7566 112.585 42.9233 112.585 43.0926V52.5041H120.902V43.0926C120.902 42.9233 120.943 42.7566 121.021 42.6065L121.197 42.2587H112.29ZM120.427 43.0926V52.0276H113.06V43.0926C113.061 42.9722 113.046 42.8522 113.018 42.7352H120.47C120.441 42.8522 120.427 42.9722 120.427 43.0926ZM122.746 42.2587L122.922 42.6065C123 42.7566 123.041 42.9233 123.041 43.0926V52.5041H131.357V43.0926C131.358 42.9233 131.398 42.7566 131.476 42.6065L131.652 42.2587H122.746ZM130.882 43.0926V52.0276H123.516V43.0926C123.516 42.9722 123.502 42.8522 123.473 42.7352H130.925C130.896 42.8522 130.882 42.9722 130.882 43.0926ZM133.201 42.2587L133.377 42.6065C133.455 42.7566 133.496 42.9233 133.496 43.0926V52.5041H141.813V43.0926C141.813 42.9233 141.854 42.7566 141.932 42.6065L142.108 42.2587H133.201ZM141.338 43.0926V52.0276H133.971V43.0926C133.971 42.9722 133.957 42.8522 133.928 42.7352H141.38C141.352 42.8522 141.338 42.9722 141.338 43.0926ZM143.657 42.2587L143.833 42.6065C143.911 42.7566 143.951 42.9233 143.952 43.0926V52.5041H152.268V43.0926C152.268 42.9233 152.309 42.7566 152.387 42.6065L152.563 42.2587H143.657ZM151.793 43.0926V52.0276H144.427V43.0926C144.427 42.9722 144.413 42.8522 144.384 42.7352H151.836C151.807 42.8522 151.793 42.9722 151.793 43.0926ZM154.112 42.2587L154.288 42.6065C154.366 42.7566 154.407 42.9233 154.407 43.0926V52.5041H162.724V43.0926C162.724 42.9233 162.765 42.7566 162.843 42.6065L163.019 42.2587H154.112ZM162.249 43.0926V52.0276H154.882V43.0926C154.882 42.9722 154.868 42.8522 154.839 42.7352H162.291C162.263 42.8522 162.248 42.9722 162.249 43.0926ZM70.4687 42.2587L70.6446 42.6065C70.7225 42.7566 70.7633 42.9233 70.7634 43.0926V52.5041H79.0802V43.0926C79.0803 42.9233 79.1211 42.7566 79.199 42.6065L79.3749 42.2587H70.4687ZM78.605 43.0926V52.0276H71.2386V43.0926C71.2388 42.9722 71.2244 42.8522 71.1958 42.7352H78.6478C78.6192 42.8522 78.6048 42.9722 78.605 43.0926ZM80.9241 42.2587L81.1 42.6065C81.178 42.7566 81.2187 42.9233 81.2188 43.0926V52.5041H89.5357V43.0926C89.5358 42.9233 89.5765 42.7566 89.6545 42.6065L89.8304 42.2587H80.9241ZM89.0604 43.0926V52.0276H81.6941V43.0926C81.6942 42.9722 81.6798 42.8522 81.6513 42.7352H89.1032C89.0747 42.8522 89.0603 42.9722 89.0604 43.0926ZM91.3796 42.2587L91.5555 42.6065C91.6334 42.7566 91.6742 42.9233 91.6743 43.0926V52.5041H99.9911V43.0926C99.9912 42.9233 100.032 42.7566 100.11 42.6065L100.286 42.2587H91.3796ZM99.5159 43.0926V52.0276H92.1495V43.0926C92.1497 42.9722 92.1353 42.8522 92.1067 42.7352H99.5587C99.5301 42.8522 99.5157 42.9722 99.5159 43.0926ZM101.835 42.2587L102.011 42.6065C102.089 42.7566 102.13 42.9233 102.13 43.0926V52.5041H110.447V43.0926C110.447 42.9233 110.487 42.7566 110.565 42.6065L110.741 42.2587H101.835ZM109.971 43.0926V52.0276H102.605V43.0926C102.605 42.9722 102.591 42.8522 102.562 42.7352H110.014C109.986 42.8522 109.971 42.9722 109.971 43.0926ZM112.29 42.2587L112.466 42.6065C112.544 42.7566 112.585 42.9233 112.585 43.0926V52.5041H120.902V43.0926C120.902 42.9233 120.943 42.7566 121.021 42.6065L121.197 42.2587H112.29ZM120.427 43.0926V52.0276H113.06V43.0926C113.061 42.9722 113.046 42.8522 113.018 42.7352H120.47C120.441 42.8522 120.427 42.9722 120.427 43.0926ZM122.746 42.2587L122.922 42.6065C123 42.7566 123.041 42.9233 123.041 43.0926V52.5041H131.357V43.0926C131.358 42.9233 131.398 42.7566 131.476 42.6065L131.652 42.2587H122.746ZM130.882 43.0926V52.0276H123.516V43.0926C123.516 42.9722 123.502 42.8522 123.473 42.7352H130.925C130.896 42.8522 130.882 42.9722 130.882 43.0926ZM133.201 42.2587L133.377 42.6065C133.455 42.7566 133.496 42.9233 133.496 43.0926V52.5041H141.813V43.0926C141.813 42.9233 141.854 42.7566 141.932 42.6065L142.108 42.2587H133.201ZM141.338 43.0926V52.0276H133.971V43.0926C133.971 42.9722 133.957 42.8522 133.928 42.7352H141.38C141.352 42.8522 141.338 42.9722 141.338 43.0926ZM143.657 42.2587L143.833 42.6065C143.911 42.7566 143.951 42.9233 143.952 43.0926V52.5041H152.268V43.0926C152.268 42.9233 152.309 42.7566 152.387 42.6065L152.563 42.2587H143.657ZM151.793 43.0926V52.0276H144.427V43.0926C144.427 42.9722 144.413 42.8522 144.384 42.7352H151.836C151.807 42.8522 151.793 42.9722 151.793 43.0926ZM154.112 42.2587L154.288 42.6065C154.366 42.7566 154.407 42.9233 154.407 43.0926V52.5041H162.724V43.0926C162.724 42.9233 162.765 42.7566 162.843 42.6065L163.019 42.2587H154.112ZM162.249 43.0926V52.0276H154.882V43.0926C154.882 42.9722 154.868 42.8522 154.839 42.7352H162.291C162.263 42.8522 162.248 42.9722 162.249 43.0926ZM70.4687 42.2587L70.6446 42.6065C70.7225 42.7566 70.7633 42.9233 70.7634 43.0926V52.5041H79.0802V43.0926C79.0803 42.9233 79.1211 42.7566 79.199 42.6065L79.3749 42.2587H70.4687ZM78.605 43.0926V52.0276H71.2386V43.0926C71.2388 42.9722 71.2244 42.8522 71.1958 42.7352H78.6478C78.6192 42.8522 78.6048 42.9722 78.605 43.0926ZM80.9241 42.2587L81.1 42.6065C81.178 42.7566 81.2187 42.9233 81.2188 43.0926V52.5041H89.5357V43.0926C89.5358 42.9233 89.5765 42.7566 89.6545 42.6065L89.8304 42.2587H80.9241ZM89.0604 43.0926V52.0276H81.6941V43.0926C81.6942 42.9722 81.6798 42.8522 81.6513 42.7352H89.1032C89.0747 42.8522 89.0603 42.9722 89.0604 43.0926ZM91.3796 42.2587L91.5555 42.6065C91.6334 42.7566 91.6742 42.9233 91.6743 43.0926V52.5041H99.9911V43.0926C99.9912 42.9233 100.032 42.7566 100.11 42.6065L100.286 42.2587H91.3796ZM99.5159 43.0926V52.0276H92.1495V43.0926C92.1497 42.9722 92.1353 42.8522 92.1067 42.7352H99.5587C99.5301 42.8522 99.5157 42.9722 99.5159 43.0926ZM101.835 42.2587L102.011 42.6065C102.089 42.7566 102.13 42.9233 102.13 43.0926V52.5041H110.447V43.0926C110.447 42.9233 110.487 42.7566 110.565 42.6065L110.741 42.2587H101.835ZM109.971 43.0926V52.0276H102.605V43.0926C102.605 42.9722 102.591 42.8522 102.562 42.7352H110.014C109.986 42.8522 109.971 42.9722 109.971 43.0926ZM112.29 42.2587L112.466 42.6065C112.544 42.7566 112.585 42.9233 112.585 43.0926V52.5041H120.902V43.0926C120.902 42.9233 120.943 42.7566 121.021 42.6065L121.197 42.2587H112.29ZM120.427 43.0926V52.0276H113.06V43.0926C113.061 42.9722 113.046 42.8522 113.018 42.7352H120.47C120.441 42.8522 120.427 42.9722 120.427 43.0926ZM122.746 42.2587L122.922 42.6065C123 42.7566 123.041 42.9233 123.041 43.0926V52.5041H131.357V43.0926C131.358 42.9233 131.398 42.7566 131.476 42.6065L131.652 42.2587H122.746ZM130.882 43.0926V52.0276H123.516V43.0926C123.516 42.9722 123.502 42.8522 123.473 42.7352H130.925C130.896 42.8522 130.882 42.9722 130.882 43.0926ZM133.201 42.2587L133.377 42.6065C133.455 42.7566 133.496 42.9233 133.496 43.0926V52.5041H141.813V43.0926C141.813 42.9233 141.854 42.7566 141.932 42.6065L142.108 42.2587H133.201ZM141.338 43.0926V52.0276H133.971V43.0926C133.971 42.9722 133.957 42.8522 133.928 42.7352H141.38C141.352 42.8522 141.338 42.9722 141.338 43.0926ZM143.657 42.2587L143.833 42.6065C143.911 42.7566 143.951 42.9233 143.952 43.0926V52.5041H152.268V43.0926C152.268 42.9233 152.309 42.7566 152.387 42.6065L152.563 42.2587H143.657ZM151.793 43.0926V52.0276H144.427V43.0926C144.427 42.9722 144.413 42.8522 144.384 42.7352H151.836C151.807 42.8522 151.793 42.9722 151.793 43.0926ZM154.112 42.2587L154.288 42.6065C154.366 42.7566 154.407 42.9233 154.407 43.0926V52.5041H162.724V43.0926C162.724 42.9233 162.765 42.7566 162.843 42.6065L163.019 42.2587H154.112ZM162.249 43.0926V52.0276H154.882V43.0926C154.882 42.9722 154.868 42.8522 154.839 42.7352H162.291C162.263 42.8522 162.248 42.9722 162.249 43.0926Z" fill="#3F3D56"/>
<path d="M98.7203 83.9553H81.1972C80.8281 83.9549 80.4743 83.8077 80.2134 83.5461C79.9524 83.2844 79.8056 82.9296 79.8052 82.5595V73.1995C79.8056 72.8294 79.9524 72.4747 80.2134 72.213C80.4743 71.9513 80.8281 71.8041 81.1972 71.8037H98.7203C99.0894 71.8041 99.4432 71.9513 99.7042 72.213C99.9652 72.4747 100.112 72.8294 100.112 73.1995V82.5595C100.112 82.9296 99.9652 83.2844 99.7042 83.5461C99.4432 83.8077 99.0894 83.9549 98.7203 83.9553Z" fill="#6DBF5A"/>
<path d="M125.386 83.9553H107.863C107.494 83.9549 107.14 83.8077 106.879 83.5461C106.618 83.2844 106.472 82.9296 106.471 82.5595V73.1995C106.472 72.8294 106.618 72.4747 106.879 72.213C107.14 71.9513 107.494 71.8041 107.863 71.8037H125.386C125.755 71.8041 126.109 71.9513 126.37 72.213C126.631 72.4747 126.778 72.8294 126.778 73.1995V82.5595C126.778 82.9296 126.631 83.2844 126.37 83.5461C126.109 83.8077 125.755 83.9549 125.386 83.9553Z" fill="#6DBF5A"/>
<path d="M152.052 83.9553H134.529C134.16 83.9549 133.806 83.8077 133.545 83.5461C133.284 83.2844 133.138 82.9296 133.137 82.5595V73.1995C133.138 72.8294 133.284 72.4747 133.545 72.213C133.806 71.9513 134.16 71.8041 134.529 71.8037H152.052C152.421 71.8041 152.775 71.9513 153.036 72.213C153.297 72.4747 153.444 72.8294 153.444 73.1995V82.5595C153.444 82.9296 153.297 83.2844 153.036 83.5461C152.775 83.8077 152.421 83.9549 152.052 83.9553Z" fill="#6DBF5A"/>
<path d="M98.7203 115.168H81.1972C80.8281 115.168 80.4743 115.021 80.2134 114.759C79.9524 114.497 79.8056 114.142 79.8052 113.772V104.412C79.8056 104.042 79.9524 103.688 80.2134 103.426C80.4743 103.164 80.8281 103.017 81.1972 103.017H98.7203C99.0894 103.017 99.4432 103.164 99.7042 103.426C99.9652 103.688 100.112 104.042 100.112 104.412V113.772C100.112 114.142 99.9652 114.497 99.7042 114.759C99.4432 115.021 99.0894 115.168 98.7203 115.168Z" fill="#6DBF5A"/>
<path d="M125.386 115.168H107.863C107.494 115.168 107.14 115.021 106.879 114.759C106.618 114.497 106.472 114.142 106.471 113.772V104.412C106.472 104.042 106.618 103.688 106.879 103.426C107.14 103.164 107.494 103.017 107.863 103.017H125.386C125.755 103.017 126.109 103.164 126.37 103.426C126.631 103.688 126.778 104.042 126.778 104.412V113.772C126.778 114.142 126.631 114.497 126.37 114.759C126.109 115.021 125.755 115.168 125.386 115.168Z" fill="#6DBF5A"/>
<path d="M152.052 115.168H134.529C134.16 115.168 133.806 115.021 133.545 114.759C133.284 114.497 133.138 114.142 133.137 113.772V104.412C133.138 104.042 133.284 103.688 133.545 103.426C133.806 103.164 134.16 103.017 134.529 103.017H152.052C152.421 103.017 152.775 103.164 153.036 103.426C153.297 103.688 153.444 104.042 153.444 104.412V113.772C153.444 114.142 153.297 114.497 153.036 114.759C152.775 115.021 152.421 115.168 152.052 115.168Z" fill="#6DBF5A"/>
<path d="M98.7203 146.381H81.1972C80.8281 146.381 80.4743 146.234 80.2134 145.972C79.9524 145.71 79.8056 145.356 79.8052 144.986V135.626C79.8056 135.255 79.9524 134.901 80.2134 134.639C80.4743 134.377 80.8281 134.23 81.1972 134.23H98.7203C99.0894 134.23 99.4432 134.377 99.7042 134.639C99.9652 134.901 100.112 135.255 100.112 135.626V144.986C100.112 145.356 99.9652 145.71 99.7042 145.972C99.4432 146.234 99.0894 146.381 98.7203 146.381Z" fill="#6DBF5A"/>
<path d="M125.386 146.381H107.863C107.494 146.381 107.14 146.234 106.879 145.972C106.618 145.71 106.472 145.356 106.471 144.986V135.626C106.472 135.255 106.618 134.901 106.879 134.639C107.14 134.377 107.494 134.23 107.863 134.23H125.386C125.755 134.23 126.109 134.377 126.37 134.639C126.631 134.901 126.778 135.255 126.778 135.626V144.986C126.778 145.356 126.631 145.71 126.37 145.972C126.109 146.234 125.755 146.381 125.386 146.381Z" fill="#6DBF5A"/>
<path d="M152.052 146.381H134.529C134.16 146.381 133.806 146.234 133.545 145.972C133.284 145.71 133.138 145.356 133.137 144.986V135.626C133.138 135.255 133.284 134.901 133.545 134.639C133.806 134.377 134.16 134.23 134.529 134.23H152.052C152.421 134.23 152.775 134.377 153.036 134.639C153.297 134.901 153.444 135.255 153.444 135.626V144.986C153.444 145.356 153.297 145.71 153.036 145.972C152.775 146.234 152.421 146.381 152.052 146.381Z" fill="#6DBF5A"/>
<path d="M95.8834 85.1564H75.5838C75.0933 85.1558 74.623 84.9602 74.2762 84.6124C73.9293 84.2645 73.7342 83.793 73.7336 83.3011V72.4581C73.7342 71.9662 73.9293 71.4946 74.2762 71.1468C74.623 70.799 75.0933 70.6034 75.5838 70.6028H95.8834C96.374 70.6034 96.8443 70.799 97.1911 71.1468C97.538 71.4946 97.7331 71.9662 97.7336 72.4581V83.3011C97.7331 83.793 97.538 84.2645 97.1911 84.6124C96.8443 84.9602 96.374 85.1558 95.8834 85.1564ZM75.5838 71.0793C75.2193 71.0797 74.8698 71.2251 74.612 71.4836C74.3543 71.7421 74.2093 72.0925 74.2089 72.4581V83.3011C74.2093 83.6666 74.3543 84.0171 74.612 84.2756C74.8698 84.534 75.2193 84.6794 75.5838 84.6799H95.8834C96.248 84.6794 96.5975 84.5341 96.8552 84.2756C97.113 84.0171 97.258 83.6666 97.2584 83.3011V72.4581C97.258 72.0925 97.113 71.7421 96.8552 71.4836C96.5975 71.2251 96.248 71.0797 95.8834 71.0793H75.5838Z" fill="#3F3D56"/>
<path d="M126.775 85.1564H106.475C105.984 85.1558 105.514 84.9602 105.167 84.6124C104.82 84.2645 104.625 83.793 104.625 83.3011V72.4581C104.625 71.9662 104.82 71.4946 105.167 71.1468C105.514 70.799 105.984 70.6034 106.475 70.6028H126.775C127.265 70.6034 127.735 70.799 128.082 71.1468C128.429 71.4946 128.624 71.9662 128.625 72.4581V83.3011C128.624 83.793 128.429 84.2645 128.082 84.6124C127.735 84.9602 127.265 85.1558 126.775 85.1564ZM106.475 71.0793C106.11 71.0797 105.761 71.2251 105.503 71.4836C105.245 71.7421 105.1 72.0925 105.1 72.4581V83.3011C105.1 83.6666 105.245 84.0171 105.503 84.2756C105.761 84.5341 106.11 84.6794 106.475 84.6799H126.775C127.139 84.6794 127.489 84.5341 127.746 84.2756C128.004 84.0171 128.149 83.6666 128.15 83.3011V72.4581C128.149 72.0925 128.004 71.7421 127.746 71.4836C127.489 71.2251 127.139 71.0797 126.775 71.0793H106.475Z" fill="#3F3D56"/>
<path d="M157.666 85.1564H137.366C136.876 85.1558 136.405 84.9602 136.058 84.6124C135.712 84.2645 135.516 83.793 135.516 83.3011V72.4581C135.516 71.9662 135.712 71.4946 136.058 71.1468C136.405 70.799 136.876 70.6034 137.366 70.6028H157.666C158.156 70.6034 158.626 70.799 158.973 71.1468C159.32 71.4946 159.515 71.9662 159.516 72.4581V83.3011C159.515 83.793 159.32 84.2645 158.973 84.6124C158.626 84.9602 158.156 85.1558 157.666 85.1564ZM137.366 71.0793C137.002 71.0797 136.652 71.2251 136.394 71.4836C136.137 71.7421 135.992 72.0925 135.991 72.4581V83.3011C135.992 83.6666 136.137 84.0171 136.394 84.2756C136.652 84.5341 137.002 84.6794 137.366 84.6799H157.666C158.03 84.6794 158.38 84.5341 158.637 84.2756C158.895 84.0171 159.04 83.6666 159.041 83.3011V72.4581C159.04 72.0925 158.895 71.7421 158.637 71.4836C158.38 71.2251 158.03 71.0797 157.666 71.0793H137.366Z" fill="#3F3D56"/>
<path d="M95.8834 116.369H75.5838C75.0933 116.369 74.623 116.173 74.2762 115.825C73.9293 115.477 73.7342 115.006 73.7336 114.514V103.671C73.7342 103.179 73.9293 102.708 74.2762 102.36C74.623 102.012 75.0933 101.816 75.5838 101.816H95.8834C96.374 101.816 96.8443 102.012 97.1911 102.36C97.538 102.708 97.7331 103.179 97.7336 103.671V114.514C97.7331 115.006 97.538 115.477 97.1911 115.825C96.8443 116.173 96.374 116.369 95.8834 116.369ZM75.5838 102.292C75.2193 102.293 74.8698 102.438 74.612 102.697C74.3543 102.955 74.2093 103.305 74.2089 103.671V114.514C74.2093 114.88 74.3543 115.23 74.612 115.488C74.8698 115.747 75.2193 115.892 75.5838 115.893H95.8834C96.248 115.892 96.5975 115.747 96.8552 115.488C97.113 115.23 97.258 114.88 97.2584 114.514V103.671C97.258 103.305 97.113 102.955 96.8552 102.696C96.5975 102.438 96.248 102.293 95.8834 102.292H75.5838Z" fill="#3F3D56"/>
<path d="M126.775 116.369H106.475C105.984 116.369 105.514 116.173 105.167 115.825C104.82 115.477 104.625 115.006 104.625 114.514V103.671C104.625 103.179 104.82 102.708 105.167 102.36C105.514 102.012 105.984 101.816 106.475 101.816H126.775C127.265 101.816 127.735 102.012 128.082 102.36C128.429 102.708 128.624 103.179 128.625 103.671V114.514C128.624 115.006 128.429 115.477 128.082 115.825C127.735 116.173 127.265 116.369 126.775 116.369ZM106.475 102.292C106.11 102.293 105.761 102.438 105.503 102.696C105.245 102.955 105.1 103.305 105.1 103.671V114.514C105.1 114.88 105.245 115.23 105.503 115.488C105.761 115.747 106.11 115.892 106.475 115.893H126.775C127.139 115.892 127.489 115.747 127.746 115.488C128.004 115.23 128.149 114.88 128.15 114.514V103.671C128.149 103.305 128.004 102.955 127.746 102.696C127.489 102.438 127.139 102.293 126.775 102.292H106.475Z" fill="#3F3D56"/>
<path d="M157.666 116.369H137.366C136.876 116.369 136.405 116.173 136.058 115.825C135.712 115.477 135.516 115.006 135.516 114.514V103.671C135.516 103.179 135.712 102.708 136.058 102.36C136.405 102.012 136.876 101.816 137.366 101.816H157.666C158.156 101.816 158.626 102.012 158.973 102.36C159.32 102.708 159.515 103.179 159.516 103.671V114.514C159.515 115.006 159.32 115.477 158.973 115.825C158.626 116.173 158.156 116.369 157.666 116.369ZM137.366 102.292C137.002 102.293 136.652 102.438 136.394 102.696C136.137 102.955 135.992 103.305 135.991 103.671V114.514C135.992 114.88 136.137 115.23 136.394 115.488C136.652 115.747 137.002 115.892 137.366 115.893H157.666C158.03 115.892 158.38 115.747 158.637 115.488C158.895 115.23 159.04 114.88 159.041 114.514V103.671C159.04 103.305 158.895 102.955 158.637 102.696C158.38 102.438 158.03 102.293 157.666 102.292H137.366Z" fill="#3F3D56"/>
<path d="M95.8834 147.582H75.5838C75.0933 147.582 74.623 147.386 74.2762 147.038C73.9293 146.691 73.7342 146.219 73.7336 145.727V134.884C73.7342 134.392 73.9293 133.921 74.2762 133.573C74.623 133.225 75.0933 133.029 75.5838 133.029H95.8834C96.374 133.029 96.8443 133.225 97.1911 133.573C97.538 133.921 97.7331 134.392 97.7336 134.884V145.727C97.7331 146.219 97.538 146.691 97.1911 147.038C96.8443 147.386 96.374 147.582 95.8834 147.582ZM75.5838 133.505C75.2193 133.506 74.8698 133.651 74.612 133.91C74.3543 134.168 74.2093 134.519 74.2089 134.884V145.727C74.2093 146.093 74.3543 146.443 74.612 146.702C74.8698 146.96 75.2193 147.105 75.5838 147.106H95.8834C96.248 147.105 96.5975 146.96 96.8552 146.702C97.113 146.443 97.258 146.093 97.2584 145.727V134.884C97.258 134.519 97.113 134.168 96.8552 133.91C96.5975 133.651 96.248 133.506 95.8834 133.505H75.5838Z" fill="#3F3D56"/>
<path d="M126.775 147.582H106.475C105.984 147.582 105.514 147.386 105.167 147.038C104.82 146.691 104.625 146.219 104.625 145.727V134.884C104.625 134.392 104.82 133.921 105.167 133.573C105.514 133.225 105.984 133.029 106.475 133.029H126.775C127.265 133.029 127.735 133.225 128.082 133.573C128.429 133.921 128.624 134.392 128.625 134.884V145.727C128.624 146.219 128.429 146.691 128.082 147.038C127.735 147.386 127.265 147.582 126.775 147.582ZM106.475 133.505C106.11 133.506 105.761 133.651 105.503 133.91C105.245 134.168 105.1 134.519 105.1 134.884V145.727C105.1 146.093 105.245 146.443 105.503 146.702C105.761 146.96 106.11 147.105 106.475 147.106H126.775C127.139 147.105 127.489 146.96 127.746 146.702C128.004 146.443 128.149 146.093 128.15 145.727V134.884C128.149 134.519 128.004 134.168 127.746 133.91C127.489 133.651 127.139 133.506 126.775 133.505H106.475Z" fill="#3F3D56"/>
<path d="M157.666 147.582H137.366C136.876 147.582 136.405 147.386 136.058 147.038C135.712 146.691 135.516 146.219 135.516 145.727V134.884C135.516 134.392 135.712 133.921 136.058 133.573C136.405 133.225 136.876 133.029 137.366 133.029H157.666C158.156 133.029 158.626 133.225 158.973 133.573C159.32 133.921 159.515 134.392 159.516 134.884V145.727C159.515 146.219 159.32 146.691 158.973 147.038C158.626 147.386 158.156 147.582 157.666 147.582ZM137.366 133.505C137.002 133.506 136.652 133.651 136.394 133.91C136.137 134.168 135.992 134.519 135.991 134.884V145.727C135.992 146.093 136.137 146.443 136.394 146.702C136.652 146.96 137.002 147.105 137.366 147.106H157.666C158.03 147.105 158.38 146.96 158.637 146.702C158.895 146.443 159.04 146.093 159.041 145.727V134.884C159.04 134.519 158.895 134.168 158.637 133.91C158.38 133.651 158.03 133.506 157.666 133.505H137.366Z" fill="#3F3D56"/>
<path d="M240.362 184.385H0.837477C0.774456 184.385 0.714015 184.36 0.669452 184.315C0.624889 184.271 0.599854 184.21 0.599854 184.147C0.599854 184.084 0.624889 184.023 0.669452 183.978C0.714015 183.934 0.774456 183.908 0.837477 183.908H240.362C240.425 183.908 240.486 183.934 240.53 183.978C240.575 184.023 240.6 184.084 240.6 184.147C240.6 184.21 240.575 184.271 240.53 184.315C240.486 184.36 240.425 184.385 240.362 184.385Z" fill="#3F3D56"/>
<path d="M128.625 161.323C128.631 160.779 128.422 160.255 128.043 159.866C127.665 159.477 127.147 159.255 126.605 159.248H116.625V183.908H128.625V161.323Z" fill="#3F3D56"/>
<path d="M116.862 183.67H104.387V161.392C104.388 160.792 104.626 160.217 105.049 159.792C105.472 159.368 106.046 159.129 106.645 159.129H116.862V183.67ZM104.862 183.194H116.387V159.605H106.645C106.172 159.606 105.719 159.794 105.385 160.129C105.051 160.464 104.863 160.918 104.862 161.392V183.194Z" fill="#3F3D56"/>
<path d="M105.932 173.067C106.325 173.067 106.645 172.747 106.645 172.352C106.645 171.958 106.325 171.638 105.932 171.638C105.538 171.638 105.219 171.958 105.219 172.352C105.219 172.747 105.538 173.067 105.932 173.067Z" fill="#3F3D56"/>
</g>
<defs>
<clipPath id="clip0_717_301">
<rect width="240" height="183.6" fill="white" transform="translate(0.599854 0.800049)"/>
</clipPath>
</defs>
</svg>
