<svg width="234" height="221" viewBox="0 0 234 221" fill="none" xmlns="http://www.w3.org/2000/svg">
<g clip-path="url(#clip0_717_382)">
<path d="M206.524 96.5449C206.498 95.6372 206.119 94.7753 205.467 94.1427C204.816 93.5101 203.943 93.1566 203.034 93.1576C202.849 93.1606 202.665 93.179 202.484 93.2125L196.384 82.6897L189.953 83.9049L199.868 97.4168C200.065 98.1589 200.503 98.8148 201.112 99.2823C201.721 99.7498 202.468 100.003 203.236 100.001C203.673 99.9961 204.105 99.9051 204.507 99.7333C204.909 99.5614 205.273 99.3122 205.578 98.9997C205.884 98.6873 206.125 98.3177 206.287 97.9122C206.45 97.5066 206.531 97.0731 206.526 96.6362C206.526 96.6058 206.525 96.5753 206.524 96.5449Z" fill="#A0616A"/>
<path d="M185.81 213.349L180.714 213.348L178.289 193.699L185.811 193.699L185.81 213.349Z" fill="#A0616A"/>
<path d="M185.99 218.663L170.317 218.662V218.464C170.318 216.847 170.96 215.296 172.104 214.153C173.248 213.009 174.8 212.367 176.417 212.367H176.418L179.281 210.196L184.622 212.367L185.99 212.367L185.99 218.663Z" fill="#2F2E41"/>
<path d="M191.18 184.079L187.746 187.843L171.588 176.392L176.657 170.837L191.18 184.079Z" fill="#A0616A"/>
<path d="M195.229 187.527L184.668 199.102L184.522 198.968C183.327 197.879 182.613 196.359 182.539 194.743C182.465 193.128 183.035 191.549 184.125 190.354L184.126 190.354L184.45 186.777L189.654 184.295L190.576 183.285L195.229 187.527Z" fill="#2F2E41"/>
<path d="M153.045 82.8419L143.497 100.22L144.231 112.692L140.194 153.046L177.995 184.595L182.766 177.625L161.48 150.478L161.735 148.553C161.359 147.988 161.201 147.305 161.29 146.633C161.379 145.96 161.71 145.342 162.22 144.895C164.049 143.141 162.494 142.824 162.494 142.824L165.517 120.029L187.17 115.702L178.087 81.4456L153.045 82.8419Z" fill="#2F2E41"/>
<path d="M165.884 107.556L177.261 203.304L187.17 204.3V170.837C187.17 170.837 185.335 169.017 187.17 168.185C189.005 167.353 187.17 164.233 187.17 164.233V115.702L177.995 101.32L165.884 107.556Z" fill="#2F2E41"/>
<path d="M145.699 27.5835L136.891 30.8851L131.753 42.6243C131.753 42.6243 120.009 48.4938 124.413 56.5645C128.817 64.6351 146.538 82.3493 146.538 82.3493C144.37 86.5767 145.112 89.8289 148.635 92.1488C153.234 99.5233 166.149 95.9104 180.564 90.3145C183.231 83.8121 179.102 73.7416 175.042 63.7079L176.16 50.3281C176.16 50.3281 163.5 31.9135 161.48 31.9857C159.46 32.0579 151.571 31.252 151.571 31.252L145.699 27.5835Z" fill="#3F3D56"/>
<path d="M158.177 33.8576C158.934 33.1404 159.841 32.5999 160.833 32.275C161.824 31.9501 162.875 31.8489 163.91 31.9786C164.946 32.1084 165.939 32.4658 166.82 33.0253C167.7 33.5847 168.446 34.3323 169.003 35.2142L188.202 65.6161C190.044 66.4882 190.971 68.4555 191.521 70.8717C192.889 70.4075 193.926 71.3098 194.241 75.1795L201.483 86.6461L194.877 93.9831L185.74 81.8773C183.616 81.316 184.604 78.2729 183.134 78.4242C181.665 78.5755 180.954 75.5353 180.954 75.5353C179.1 75.5144 178.556 74.645 179.096 73.0728L160.379 46.3362L158.177 33.8576Z" fill="#3F3D56"/>
<path d="M76.5376 33.1733C76.8178 34.0371 77.4242 34.7575 78.2277 35.1812C79.0312 35.6049 79.9684 35.6985 80.8399 35.442C81.0162 35.3871 81.1877 35.3177 81.3525 35.2345L90.1685 43.6159L95.9971 40.6407L82.6784 30.4643C82.2804 29.8077 81.6761 29.3013 80.9598 29.0241C80.2435 28.7468 79.4556 28.7145 78.719 28.9319C78.301 29.0597 77.9123 29.2685 77.5751 29.5464C77.2379 29.8244 76.9587 30.166 76.7536 30.5517C76.5484 30.9375 76.4213 31.3599 76.3794 31.7948C76.3376 32.2297 76.3818 32.6685 76.5097 33.0863C76.5186 33.1154 76.5279 33.1444 76.5376 33.1733Z" fill="#A0616A"/>
<path d="M131.019 45.9261L118.908 49.5946L110.371 48.2384L108.457 46.8711C107.632 44.6427 105.971 43.5948 103.757 43.3262C103.757 43.3262 101.966 43.9397 101.996 41.9981C102.026 40.0565 90.2818 33.0864 90.2818 33.0864L85.1439 42.2576L91.7498 50.3283C94.0948 50.4007 95.5397 50.0914 94.3188 52.8962C94.8171 55.5973 94.4725 54.9703 96.4852 55.0197L106.797 65.369L128.45 68.6707L142.202 63.8287L131.019 45.9261Z" fill="#3F3D56"/>
<path d="M134.032 27.1535C140.258 27.1535 145.305 22.1085 145.305 15.8852C145.305 9.66192 140.258 4.61694 134.032 4.61694C127.806 4.61694 122.759 9.66192 122.759 15.8852C122.759 22.1085 127.806 27.1535 134.032 27.1535Z" fill="#A0616A"/>
<path d="M141.265 15.6674C141.255 15.5417 141.242 15.4161 141.226 15.2905C141.21 15.4174 141.223 15.5463 141.265 15.6674Z" fill="#2F2E41"/>
<path d="M118.344 8.15054C118.146 6.79861 118.899 5.2662 120.216 4.89124C121.037 4.65708 121.913 4.8815 122.764 4.89631C125.152 4.93667 129.396 0.96006 131.701 0.350831C134.01 -0.256669 136.998 1.01296 137.185 3.39215C143.09 1.63478 147.599 5.61078 147.874 11.8813C148.09 16.7852 143.917 23.469 139.517 25.6504C138.979 22.7968 140.974 18.5193 140.437 15.6686C140.343 14.8833 140.09 14.1254 139.692 13.4419C139.251 12.7881 138.443 12.3156 137.679 12.5089C137.367 12.6012 137.101 12.8069 136.934 13.0855C136.766 13.364 136.709 13.6952 136.774 14.0136C136.327 13.2545 135.697 12.6188 134.942 12.1641C134.187 11.7093 133.331 11.4498 132.451 11.409C131.57 11.3682 130.693 11.5475 129.9 11.9305C129.106 12.3135 128.42 12.8883 127.905 13.6028L128.528 11.0392C126.947 12.7761 124.903 14.026 122.637 14.642C122.508 14.4805 122.41 14.296 122.35 14.0983C122.285 13.8958 122.272 13.6797 122.315 13.4711C122.358 13.2625 122.453 13.0685 122.593 12.9079C122.288 13.144 122.033 13.4394 121.845 13.7765C121.657 14.1135 121.539 14.4851 121.499 14.8689C120.135 15.1047 118.731 14.8289 117.558 14.0944C116.426 13.3241 118.542 9.50247 118.344 8.15054Z" fill="#2F2E41"/>
<path d="M221.341 219.824H209.161L209.109 219.729C208.953 219.447 208.803 219.147 208.662 218.84C207.408 216.155 206.878 213.085 206.41 210.376L206.057 208.334C206.015 208.086 206.047 207.832 206.15 207.603C206.253 207.374 206.421 207.181 206.635 207.049C206.848 206.916 207.096 206.85 207.347 206.859C207.598 206.869 207.84 206.953 208.043 207.1C209.894 208.447 211.746 209.792 213.598 211.135C214.299 211.645 215.1 212.236 215.867 212.874C215.941 212.514 216.019 212.154 216.096 211.799C216.15 211.553 216.275 211.329 216.457 211.156C216.638 210.982 216.867 210.866 217.115 210.824C217.362 210.781 217.617 210.813 217.846 210.916C218.075 211.018 218.269 211.187 218.401 211.4L219.826 213.689C220.866 215.36 221.783 217.007 221.596 218.783C221.597 218.805 221.595 218.826 221.591 218.848C221.554 219.139 221.485 219.426 221.384 219.703L221.341 219.824Z" fill="#F0F0F0"/>
<path d="M233.565 220.087L117.829 220.2C117.714 220.199 117.603 220.153 117.522 220.071C117.44 219.989 117.395 219.879 117.395 219.763C117.395 219.648 117.44 219.537 117.522 219.455C117.603 219.373 117.714 219.327 117.829 219.326L233.565 219.214C233.681 219.214 233.791 219.26 233.873 219.342C233.954 219.424 234 219.535 234 219.65C234 219.766 233.954 219.877 233.873 219.959C233.791 220.04 233.681 220.087 233.565 220.087Z" fill="#CACACA"/>
<path d="M101.292 173.589H8.44098C6.20307 173.587 4.05753 172.697 2.47508 171.115C0.892637 169.533 0.0025139 167.389 0 165.152V40.4233C0.00254395 38.1864 0.892677 36.0417 2.47512 34.4599C4.05756 32.8781 6.20308 31.9884 8.44098 31.9858H101.292C103.53 31.9884 105.675 32.8781 107.258 34.4599C108.84 36.0417 109.73 38.1864 109.733 40.4233V165.152C109.73 167.389 108.84 169.533 107.258 171.115C105.675 172.697 103.53 173.587 101.292 173.589Z" fill="white"/>
<path d="M101.292 173.589H8.44098C6.20307 173.587 4.05753 172.697 2.47508 171.115C0.892637 169.533 0.0025139 167.389 0 165.152V40.4233C0.00254395 38.1864 0.892677 36.0417 2.47512 34.4599C4.05756 32.8781 6.20308 31.9884 8.44098 31.9858H101.292C103.53 31.9884 105.675 32.8781 107.258 34.4599C108.84 36.0417 109.73 38.1864 109.733 40.4233V165.152C109.73 167.389 108.84 169.533 107.258 171.115C105.675 172.697 103.53 173.587 101.292 173.589ZM8.44098 32.7195C6.39767 32.7218 4.4387 33.5342 2.99385 34.9785C1.54901 36.4227 0.73629 38.3809 0.733999 40.4233V165.152C0.73632 167.194 1.54905 169.152 2.99389 170.597C4.43872 172.041 6.39768 172.853 8.44098 172.855H101.292C103.335 172.853 105.294 172.041 106.739 170.597C108.184 169.152 108.996 167.194 108.999 165.152V40.4233C108.997 38.3809 108.184 36.4227 106.739 34.9785C105.294 33.5342 103.335 32.7218 101.292 32.7195H8.44098Z" fill="#E6E6E6"/>
<path d="M22.2034 73.1658C24.0276 73.1658 25.5064 71.6876 25.5064 69.8641C25.5064 68.0407 24.0276 66.5625 22.2034 66.5625C20.3793 66.5625 18.9005 68.0407 18.9005 69.8641C18.9005 71.6876 20.3793 73.1658 22.2034 73.1658Z" fill="#CCCCCC"/>
<path d="M90.0984 70.231H33.4908C33.3935 70.231 33.3002 70.1924 33.2313 70.1236C33.1625 70.0548 33.1238 69.9615 33.1238 69.8642C33.1238 69.7669 33.1625 69.6736 33.2313 69.6048C33.3002 69.536 33.3935 69.4973 33.4908 69.4973H90.0984C90.1957 69.4973 90.289 69.536 90.3579 69.6048C90.4267 69.6736 90.4654 69.7669 90.4654 69.8642C90.4654 69.9615 90.4267 70.0548 90.3579 70.1236C90.289 70.1924 90.1957 70.231 90.0984 70.231Z" fill="#CCCCCC"/>
<path d="M22.387 134.429C24.2112 134.429 25.69 132.951 25.69 131.128C25.69 129.304 24.2112 127.826 22.387 127.826C20.5628 127.826 19.084 129.304 19.084 131.128C19.084 132.951 20.5628 134.429 22.387 134.429Z" fill="#CCCCCC"/>
<path d="M22.226 99.4319C24.0502 99.4319 25.529 97.9537 25.529 96.1302C25.529 94.3068 24.0502 92.8286 22.226 92.8286C20.4018 92.8286 18.923 94.3068 18.923 96.1302C18.923 97.9537 20.4018 99.4319 22.226 99.4319Z" fill="#CCCCCC"/>
<path d="M89.3644 79.2551H74.6844C74.295 79.2551 73.9216 79.1005 73.6463 78.8253C73.371 78.5501 73.2164 78.1769 73.2164 77.7877C73.2164 77.3985 73.371 77.0253 73.6463 76.7501C73.9216 76.4749 74.295 76.3203 74.6844 76.3203H89.3644C89.7537 76.3203 90.1271 76.4749 90.4024 76.7501C90.6777 77.0253 90.8323 77.3985 90.8323 77.7877C90.8323 78.1769 90.6777 78.5501 90.4024 78.8253C90.1271 79.1005 89.7537 79.2551 89.3644 79.2551Z" fill="#6DBF5A"/>
<path d="M89.3644 115.573H74.6844C74.295 115.573 73.9216 115.419 73.6463 115.143C73.371 114.868 73.2164 114.495 73.2164 114.106C73.2164 113.717 73.371 113.343 73.6463 113.068C73.9216 112.793 74.295 112.638 74.6844 112.638H89.3644C89.7537 112.638 90.1271 112.793 90.4024 113.068C90.6777 113.343 90.8323 113.717 90.8323 114.106C90.8323 114.495 90.6777 114.868 90.4024 115.143C90.1271 115.419 89.7537 115.573 89.3644 115.573Z" fill="#6DBF5A"/>
<path d="M78.7936 51.8886H36.6277C35.6005 51.8886 34.6154 51.4807 33.8891 50.7547C33.1628 50.0287 32.7547 49.0439 32.7547 48.0172C32.7547 46.9904 33.1628 46.0057 33.8891 45.2797C34.6154 44.5536 35.6005 44.1458 36.6277 44.1458H78.7936C79.8208 44.1458 80.8059 44.5536 81.5322 45.2797C82.2586 46.0057 82.6666 46.9904 82.6666 48.0172C82.6666 49.0439 82.2586 50.0287 81.5322 50.7547C80.8059 51.4807 79.8208 51.8886 78.7936 51.8886Z" fill="#6DBF5A"/>
<path d="M89.3644 161.429H74.6844C74.295 161.429 73.9216 161.275 73.6463 160.999C73.371 160.724 73.2164 160.351 73.2164 159.962C73.2164 159.573 73.371 159.199 73.6463 158.924C73.9216 158.649 74.295 158.494 74.6844 158.494H89.3644C89.7537 158.494 90.1271 158.649 90.4024 158.924C90.6777 159.199 90.8323 159.573 90.8323 159.962C90.8323 160.351 90.6777 160.724 90.4024 160.999C90.1271 161.275 89.7537 161.429 89.3644 161.429Z" fill="#6DBF5A"/>
<path d="M86.5054 152.405H37.1183C36.8067 152.401 36.4964 152.362 36.1937 152.288C35.2901 152.071 34.4863 151.555 33.9121 150.825C33.338 150.095 33.0272 149.192 33.0299 148.263V131.483C33.0316 130.386 33.4689 129.334 34.2456 128.558C35.0224 127.782 36.0753 127.346 37.1734 127.345H86.5054C87.1704 127.344 87.8258 127.504 88.4148 127.813C88.6493 127.934 88.8711 128.079 89.0769 128.245C89.5684 128.629 89.9655 129.121 90.2379 129.682C90.5103 130.243 90.6509 130.86 90.6488 131.483V148.263C90.6476 149.361 90.2107 150.414 89.4339 151.19C88.6571 151.967 87.6039 152.404 86.5054 152.405ZM37.1734 128.079C36.2699 128.08 35.4036 128.438 34.7645 129.077C34.1253 129.715 33.7655 130.58 33.7639 131.483V148.263C33.7617 149.028 34.0175 149.77 34.49 150.371C34.9626 150.973 35.6241 151.397 36.3677 151.575C36.615 151.636 36.8683 151.668 37.1228 151.671H86.5054C87.4093 151.67 88.2759 151.311 88.915 150.672C89.5542 150.033 89.9137 149.167 89.9148 148.263V131.483C89.9164 130.97 89.8005 130.463 89.5761 130.001C89.3517 129.539 89.0247 129.135 88.6201 128.819C88.4512 128.683 88.2691 128.564 88.0766 128.464C87.5919 128.21 87.0526 128.078 86.5053 128.079H37.1734Z" fill="#E6E6E6"/>
<path d="M83.1951 152.038C85.4374 146.59 87.7997 141.197 90.2818 135.856V144.91C88.5893 147.484 86.631 149.873 84.4392 152.038H83.1951Z" fill="#E6E6E6"/>
<path d="M88.8469 128.53C84.4098 136.487 79.7673 144.323 74.9192 152.038H74.0751C79.0039 144.202 83.7272 136.235 88.245 128.138C88.4582 128.248 88.6598 128.38 88.8469 128.53Z" fill="#E6E6E6"/>
<path d="M56.2867 137.217C53.3872 142.342 50.1875 147.291 46.7043 152.038H41.6728C44.9685 148.025 48.2666 144.011 51.5671 139.998C52.5139 138.843 53.5415 137.632 54.9618 137.162L56.2867 137.217Z" fill="#E6E6E6"/>
<path d="M49.6 136.396C49.0751 136.942 48.5724 137.511 48.0989 138.102C47.0566 139.356 46.029 140.622 44.9978 141.884C44.3555 142.669 43.7133 143.454 43.0784 144.239C42.8767 144.11 42.6853 143.965 42.5059 143.806C41.4918 142.926 40.8628 141.684 40.7537 140.347C40.6446 139.009 41.0641 137.682 41.9222 136.649C42.7803 135.617 44.0088 134.961 45.3445 134.824C46.6802 134.686 48.0167 135.076 49.0678 135.911C49.2572 136.059 49.4351 136.221 49.6 136.396Z" fill="#6DBF5A"/>
<path d="M77.98 139.961L68.3353 136.436L63.5459 134.686C61.9862 134.118 60.4301 133.468 58.819 133.057C57.4179 132.657 55.9301 132.676 54.5398 133.112C53.3 133.571 52.1654 134.275 51.2037 135.181C50.778 135.574 50.3658 135.979 49.967 136.396C49.4422 136.942 48.9394 137.511 48.4659 138.102C47.4237 139.356 46.3961 140.622 45.3648 141.884C44.7225 142.669 44.0803 143.454 43.4454 144.239C41.3241 146.833 39.2151 149.432 37.1183 152.038C36.8362 152.035 36.5555 151.999 36.2816 151.932C38.4689 149.217 40.666 146.509 42.8729 143.806C43.1261 143.491 43.3867 143.171 43.6436 142.856C44.7189 141.539 45.7954 140.223 46.8731 138.909C47.7062 137.892 48.532 136.869 49.4348 135.911C49.5155 135.823 49.5963 135.739 49.6807 135.651C51.512 133.758 53.7984 132.085 56.5362 132.041C58.1474 132.016 59.7034 132.525 61.2008 133.065C62.8119 133.648 64.4194 134.242 66.0305 134.833L75.7413 138.384L78.1708 139.272C78.6002 139.426 78.4168 140.123 77.98 139.961Z" fill="#E6E6E6"/>
<path d="M46.6227 106.472H35.1766C34.5648 106.472 33.9782 106.229 33.5456 105.796C33.1129 105.364 32.8696 104.777 32.8689 104.166V93.4625C32.8696 92.8509 33.1129 92.2646 33.5456 91.8321C33.9782 91.3997 34.5648 91.1564 35.1766 91.1558H46.6227C47.2345 91.1564 47.8211 91.3997 48.2537 91.8321C48.6863 92.2646 48.9297 92.8509 48.9304 93.4625V104.166C48.9297 104.777 48.6863 105.364 48.2537 105.796C47.8211 106.229 47.2345 106.472 46.6227 106.472Z" fill="#E6E6E6"/>
<path d="M67.0393 106.472H55.5932C54.9814 106.472 54.3948 106.229 53.9622 105.796C53.5296 105.364 53.2862 104.777 53.2855 104.166V93.4625C53.2862 92.8509 53.5295 92.2646 53.9622 91.8321C54.3948 91.3997 54.9814 91.1564 55.5932 91.1558H67.0393C67.6511 91.1564 68.2377 91.3997 68.6703 91.8321C69.103 92.2646 69.3463 92.8509 69.347 93.4625V104.166C69.3463 104.777 69.1029 105.364 68.6703 105.796C68.2377 106.229 67.6511 106.472 67.0393 106.472Z" fill="#E6E6E6"/>
<path d="M87.4559 106.472H76.0098C75.3979 106.472 74.8114 106.229 74.3788 105.796C73.9461 105.364 73.7028 104.777 73.7021 104.166V93.4625C73.7028 92.8509 73.9461 92.2646 74.3788 91.8321C74.8114 91.3997 75.3979 91.1564 76.0098 91.1558H87.4559C88.0677 91.1564 88.6543 91.3997 89.0869 91.8321C89.5195 92.2646 89.7629 92.8509 89.7635 93.4625V104.166C89.7629 104.777 89.5195 105.364 89.0869 105.796C88.6543 106.229 88.0677 106.472 87.4559 106.472Z" fill="#E6E6E6"/>
</g>
<defs>
<clipPath id="clip0_717_382">
<rect width="234" height="220" fill="white" transform="translate(0 0.199951)"/>
</clipPath>
</defs>
</svg>
