<svg width="387" height="272" viewBox="0 0 387 272" fill="none" xmlns="http://www.w3.org/2000/svg">
<g clip-path="url(#clip0_717_261)">
<path d="M21.7059 234.105C23.226 221.862 30.8016 209.799 42.4593 205.815C37.8618 218.416 37.8628 232.24 42.4621 244.841C44.2534 249.694 46.7504 254.905 45.0654 259.796C44.017 262.84 41.4523 265.168 38.5854 266.624C35.7184 268.08 32.5366 268.774 29.3946 269.454L28.7763 269.967C23.7884 258.686 20.1857 246.348 21.7059 234.105Z" fill="#F0F0F0"/>
<path d="M42.5749 206.046C35.7861 213.665 31.5666 223.232 30.5158 233.39C30.2508 235.572 30.331 237.783 30.7534 239.941C31.2327 242.029 32.2616 243.951 33.7332 245.507C35.0763 246.985 36.621 248.341 37.582 250.12C38.0604 251.038 38.3397 252.047 38.4014 253.081C38.4632 254.114 38.3061 255.15 37.9404 256.118C37.092 258.555 35.4197 260.542 33.717 262.428C31.8264 264.522 29.8296 266.667 29.026 269.443C28.9286 269.779 28.4133 269.608 28.5105 269.272C29.9087 264.443 34.5896 261.699 36.8219 257.349C37.8635 255.319 38.3007 252.963 37.3242 250.82C36.4703 248.947 34.8786 247.547 33.5058 246.062C32.0479 244.566 30.9781 242.735 30.3897 240.729C29.859 238.6 29.6939 236.396 29.9015 234.211C30.2905 229.285 31.4504 224.452 33.3386 219.887C35.4648 214.665 38.4671 209.846 42.2157 205.638C42.4478 205.378 42.8055 205.787 42.5749 206.046Z" fill="white"/>
<path d="M30.662 230.099C28.9844 229.691 27.5063 228.699 26.4915 227.301C25.4767 225.902 24.9913 224.187 25.1221 222.463C25.1498 222.115 25.6922 222.141 25.6645 222.491C25.5397 224.096 25.992 225.693 26.9396 226.993C27.8872 228.294 29.2678 229.212 30.8322 229.583C31.1721 229.664 30.9999 230.18 30.662 230.099Z" fill="white"/>
<path d="M32.9537 244.847C35.9836 243.035 38.2203 240.146 39.2178 236.756C39.3164 236.42 39.8318 236.591 39.7334 236.926C38.6888 240.452 36.355 243.454 33.1979 245.333C32.8969 245.512 32.6543 245.025 32.9537 244.847Z" fill="white"/>
<path d="M35.9685 215.18C36.5847 215.473 37.2641 215.609 37.9455 215.574C38.6269 215.54 39.289 215.336 39.8725 214.982C40.1711 214.799 40.4133 215.286 40.1166 215.467C39.4702 215.856 38.7387 216.08 37.9859 216.12C37.2331 216.16 36.482 216.014 35.7983 215.697C35.7313 215.672 35.6762 215.623 35.6441 215.559C35.612 215.495 35.6054 215.422 35.6256 215.353C35.6485 215.285 35.6973 215.228 35.7615 215.196C35.8257 215.164 35.9001 215.158 35.9685 215.18Z" fill="white"/>
<path d="M77.9936 227.682C77.8103 227.801 77.6271 227.921 77.4436 228.044C74.9885 229.661 72.6686 231.476 70.5068 233.469C70.3372 233.62 70.1676 233.776 70.0028 233.932C64.8456 238.79 60.6337 244.565 57.5813 250.963C56.369 253.51 55.3519 256.145 54.5388 258.847C53.4162 262.578 52.4953 266.713 50.273 269.764C50.0447 270.085 49.7968 270.392 49.5307 270.682H29.4482C29.4025 270.659 29.3567 270.641 29.3108 270.618L28.509 270.655C28.5412 270.512 28.5777 270.365 28.6099 270.223C28.6282 270.141 28.651 270.058 28.6694 269.975C28.683 269.92 28.6969 269.865 28.7061 269.815C28.7105 269.796 28.7152 269.778 28.7197 269.764C28.7289 269.714 28.7428 269.668 28.7519 269.622C28.9535 268.801 29.1612 267.979 29.375 267.158C29.375 267.153 29.375 267.153 29.3795 267.149C31.0245 260.894 33.2054 254.721 36.2524 249.076C36.3441 248.907 36.4356 248.732 36.5365 248.562C37.924 246.026 39.5162 243.607 41.2971 241.33C42.2764 240.086 43.3178 238.893 44.4175 237.755C47.2645 234.82 50.5547 232.351 54.1677 230.44C61.3705 226.631 69.7094 225.172 77.4072 227.498C77.6041 227.558 77.7967 227.618 77.9936 227.682Z" fill="#F0F0F0"/>
<path d="M77.9484 227.937C67.9481 229.927 58.8278 235.021 51.883 242.498C50.3595 244.081 49.0945 245.894 48.1348 247.872C47.262 249.828 46.9283 251.983 47.1683 254.113C47.3522 256.103 47.7704 258.117 47.4682 260.117C47.2983 261.138 46.9148 262.112 46.3427 262.975C45.7706 263.838 45.0229 264.569 44.1487 265.122C42.0061 266.557 39.4767 267.135 36.9836 267.613C34.2154 268.145 31.3317 268.654 29.0214 270.386C28.7415 270.595 28.4328 270.148 28.7123 269.939C32.7318 266.926 38.1183 267.558 42.5155 265.431C44.5674 264.438 46.333 262.82 46.8413 260.521C47.2858 258.51 46.8563 256.432 46.6526 254.419C46.3881 252.345 46.6346 250.238 47.3707 248.282C48.2268 246.262 49.4198 244.402 50.8988 242.783C54.1703 239.085 58.0021 235.925 62.2538 233.419C67.0903 230.531 72.3843 228.494 77.9067 227.395C78.2485 227.327 78.288 227.87 77.9484 227.937Z" fill="white"/>
<path d="M53.9777 239.959C52.8835 238.621 52.2995 236.938 52.3301 235.209C52.3606 233.481 53.0037 231.819 54.1445 230.521C54.3762 230.26 54.7933 230.608 54.5612 230.87C53.4967 232.076 52.8978 233.624 52.8726 235.234C52.8475 236.844 53.3977 238.41 54.424 239.649C54.6467 239.919 54.1991 240.227 53.9777 239.959Z" fill="white"/>
<path d="M46.9423 253.116C50.4508 253.496 53.9734 252.538 56.8078 250.433C57.0885 250.224 57.3973 250.671 57.117 250.88C54.1633 253.065 50.4954 254.055 46.8454 253.651C46.4975 253.612 46.5964 253.077 46.9423 253.116Z" fill="white"/>
<path d="M67.1828 231.246C67.4985 231.852 67.9596 232.37 68.5244 232.753C69.0893 233.136 69.7404 233.373 70.4192 233.442C70.7674 233.476 70.6682 234.011 70.3223 233.977C69.5726 233.897 68.8539 233.635 68.2288 233.213C67.6038 232.791 67.0914 232.222 66.7365 231.556C66.6978 231.496 66.6834 231.424 66.6961 231.353C66.7088 231.283 66.7478 231.22 66.8051 231.178C66.8644 231.137 66.9373 231.121 67.0081 231.134C67.0788 231.147 67.1416 231.187 67.1828 231.246Z" fill="white"/>
<path d="M372.503 141.728H307.898V140.81H371.587V98.1309H372.503V141.728Z" fill="#6DBF5A"/>
<path d="M163.11 159.625H162.193V116.029H226.798V116.946H163.11V159.625Z" fill="#6DBF5A"/>
<path d="M257.497 62.3356H192.892V18.7388H193.809V61.4178H257.497V62.3356Z" fill="#6DBF5A"/>
<path d="M180.037 0.400146C179.69 0.400796 179.358 0.53913 179.113 0.784785C178.868 1.03044 178.731 1.36334 178.731 1.71043C178.731 2.05751 178.868 2.39041 179.113 2.63607C179.358 2.88173 179.69 3.02006 180.037 3.02071H206.575C206.921 3.02006 207.253 2.88173 207.498 2.63607C207.743 2.39041 207.88 2.05751 207.88 1.71043C207.88 1.36334 207.743 1.03044 207.498 0.784785C207.253 0.53913 206.921 0.400796 206.575 0.400146H180.037Z" fill="#3F3D56"/>
<path d="M180.037 8.11987C179.69 8.11987 179.357 8.25792 179.112 8.50364C178.866 8.74937 178.729 9.08265 178.729 9.43015C178.729 9.77766 178.866 10.1109 179.112 10.3567C179.357 10.6024 179.69 10.7404 180.037 10.7404H206.575C206.921 10.7398 207.253 10.6015 207.498 10.3558C207.743 10.1101 207.88 9.77724 207.88 9.43015C207.88 9.08307 207.743 8.75017 207.498 8.50451C207.253 8.25886 206.921 8.12052 206.575 8.11987H180.037Z" fill="#3F3D56"/>
<path d="M385.492 92.2627C385.838 92.262 386.17 92.1237 386.415 91.878C386.66 91.6324 386.797 91.2995 386.797 90.9524C386.797 90.6053 386.66 90.2724 386.415 90.0267C386.17 89.7811 385.838 89.6427 385.492 89.6421H358.951C358.779 89.6418 358.609 89.6754 358.45 89.7411C358.291 89.8068 358.146 89.9033 358.024 90.025C357.903 90.1467 357.806 90.2913 357.74 90.4504C357.674 90.6095 357.64 90.7801 357.64 90.9524C357.64 91.1247 357.674 91.2952 357.74 91.4544C357.806 91.6135 357.903 91.7581 358.024 91.8798C358.146 92.0015 358.291 92.0979 358.45 92.1636C358.609 92.2293 358.779 92.263 358.951 92.2627H385.492Z" fill="#2F2E41"/>
<path d="M385.492 84.5422C385.838 84.5415 386.17 84.4032 386.415 84.1576C386.66 83.9119 386.797 83.579 386.797 83.2319C386.797 82.8848 386.66 82.5519 386.415 82.3063C386.17 82.0606 385.838 81.9223 385.492 81.9216H358.951C358.779 81.9213 358.609 81.955 358.45 82.0207C358.291 82.0864 358.146 82.1828 358.024 82.3045C357.903 82.4262 357.806 82.5708 357.74 82.7299C357.674 82.8891 357.64 83.0596 357.64 83.2319C357.64 83.4042 357.674 83.5748 357.74 83.7339C357.806 83.893 357.903 84.0376 358.024 84.1593C358.146 84.281 358.291 84.3775 358.45 84.4432C358.609 84.5089 358.779 84.5425 358.951 84.5422H385.492Z" fill="#2F2E41"/>
<path d="M273.076 154.577C263.379 154.577 253.9 151.697 245.838 146.302C237.776 140.906 231.492 133.237 227.781 124.264C224.071 115.292 223.1 105.419 224.991 95.8935C226.883 86.3683 231.552 77.6189 238.409 70.7516C245.265 63.8843 254.001 59.2076 263.511 57.3129C273.021 55.4182 282.879 56.3907 291.837 60.1072C300.796 63.8238 308.453 70.1175 313.84 78.1926C319.227 86.2677 322.102 95.7614 322.102 105.473C322.087 118.492 316.917 130.973 307.726 140.179C298.535 149.384 286.074 154.562 273.076 154.577ZM273.076 57.2872C263.56 57.2872 254.259 60.1133 246.347 65.408C238.436 70.7028 232.269 78.2284 228.628 87.0332C224.987 95.8381 224.034 105.527 225.89 114.874C227.746 124.221 232.329 132.807 239.057 139.546C245.785 146.285 254.358 150.874 263.69 152.733C273.022 154.593 282.696 153.638 291.487 149.991C300.278 146.344 307.791 140.168 313.078 132.244C318.364 124.32 321.186 115.003 321.186 105.473C321.171 92.6979 316.098 80.45 307.079 71.4165C298.059 62.3831 285.831 57.3017 273.076 57.2872Z" fill="#6DBF5A"/>
<path d="M253.374 67.8423C256.41 67.8423 258.872 65.3767 258.872 62.3353C258.872 59.2939 256.41 56.8284 253.374 56.8284C250.337 56.8284 247.875 59.2939 247.875 62.3353C247.875 65.3767 250.337 67.8423 253.374 67.8423Z" fill="#6DBF5A"/>
<path d="M225.424 122.453C228.46 122.453 230.922 119.988 230.922 116.946C230.922 113.905 228.46 111.439 225.424 111.439C222.387 111.439 219.926 113.905 219.926 116.946C219.926 119.988 222.387 122.453 225.424 122.453Z" fill="#6DBF5A"/>
<path d="M306.065 147.234C309.102 147.234 311.564 144.769 311.564 141.727C311.564 138.686 309.102 136.22 306.065 136.22C303.029 136.22 300.567 138.686 300.567 141.727C300.567 144.769 303.029 147.234 306.065 147.234Z" fill="#6DBF5A"/>
<path d="M149.205 165.493C148.858 165.493 148.525 165.631 148.28 165.877C148.035 166.123 147.897 166.456 147.897 166.803C147.897 167.151 148.035 167.484 148.28 167.73C148.525 167.976 148.858 168.114 149.205 168.114H175.746C176.092 168.113 176.424 167.975 176.669 167.729C176.914 167.483 177.051 167.151 177.051 166.803C177.051 166.456 176.914 166.123 176.669 165.878C176.424 165.632 176.092 165.494 175.746 165.493H149.205Z" fill="#2F2E41"/>
<path d="M149.205 173.214C149.033 173.213 148.863 173.247 148.704 173.313C148.545 173.378 148.4 173.475 148.278 173.597C148.157 173.718 148.06 173.863 147.994 174.022C147.928 174.181 147.894 174.352 147.894 174.524C147.894 174.696 147.928 174.867 147.994 175.026C148.06 175.185 148.157 175.33 148.278 175.451C148.4 175.573 148.545 175.669 148.704 175.735C148.863 175.801 149.033 175.835 149.205 175.834H175.746C176.092 175.834 176.424 175.695 176.669 175.45C176.914 175.204 177.051 174.871 177.051 174.524C177.051 174.177 176.914 173.844 176.669 173.598C176.424 173.353 176.092 173.214 175.746 173.214H149.205Z" fill="#2F2E41"/>
<path d="M83.7407 271.34H77.0719C76.2333 271.339 75.4294 271.005 74.8364 270.411C74.2435 269.817 73.9099 269.012 73.909 268.172V212.502C73.9099 211.662 74.2435 210.857 74.8364 210.263C75.4294 209.669 76.2333 209.335 77.0719 209.334H83.7407C84.5793 209.335 85.3832 209.669 85.9762 210.263C86.5691 210.857 86.9026 211.662 86.9036 212.502V268.172C86.9026 269.012 86.5691 269.817 85.9762 270.411C85.3832 271.005 84.5793 271.339 83.7407 271.34Z" fill="#6DBF5A"/>
<path d="M101.449 271.34H94.7803C93.9417 271.339 93.1378 271.005 92.5448 270.411C91.9519 269.817 91.6184 269.012 91.6174 268.172V212.502C91.6184 211.662 91.9519 210.857 92.5448 210.263C93.1378 209.669 93.9417 209.335 94.7803 209.334H101.449C102.288 209.335 103.092 209.669 103.685 210.263C104.278 210.857 104.611 211.662 104.612 212.502V268.172C104.611 269.012 104.278 269.817 103.685 270.411C103.092 271.005 102.288 271.339 101.449 271.34Z" fill="#6DBF5A"/>
<path d="M89.9117 151.463C102.638 151.463 112.955 141.129 112.955 128.383C112.955 115.636 102.638 105.302 89.9117 105.302C77.185 105.302 66.868 115.636 66.868 128.383C66.868 141.129 77.185 151.463 89.9117 151.463Z" fill="#6DBF5A"/>
<path d="M97.7336 229.075H81.156C77.711 229.088 74.3238 228.189 71.3371 226.469C68.3504 224.75 65.8703 222.27 64.1478 219.282C62.4253 216.294 61.5215 212.903 61.528 209.453C61.5346 206.002 62.4511 202.615 64.1848 199.633L87.3682 159.415C87.626 158.968 87.9967 158.597 88.4432 158.338C88.8897 158.08 89.3961 157.944 89.9117 157.944C90.4272 157.944 90.9337 158.08 91.3801 158.338C91.8266 158.597 92.1973 158.968 92.4551 159.415L115.172 198.823C116.939 201.889 117.869 205.367 117.869 208.907C117.869 212.447 116.939 215.925 115.172 218.991C113.404 222.057 110.862 224.603 107.801 226.373C104.74 228.143 101.268 229.075 97.7336 229.075Z" fill="#2F2E41"/>
<path d="M95.3506 138.071C96.8443 138.029 98.7034 137.978 100.136 136.93C100.562 136.605 100.912 136.191 101.162 135.716C101.412 135.241 101.555 134.717 101.581 134.181C101.607 133.801 101.545 133.419 101.399 133.066C101.253 132.713 101.028 132.399 100.741 132.148C99.9929 131.515 98.9006 131.367 97.7234 131.713L98.943 122.786L98.0477 122.663L96.6139 133.158L97.3616 132.814C98.2283 132.416 99.4182 132.213 100.158 132.839C100.339 133.003 100.481 133.206 100.571 133.433C100.661 133.661 100.698 133.906 100.678 134.15C100.656 134.549 100.549 134.938 100.363 135.292C100.178 135.645 99.9182 135.955 99.6024 136.199C98.4879 137.014 97.0061 137.119 95.3254 137.166L95.3506 138.071Z" fill="#2F2E41"/>
<path d="M108.238 123.556H103.371V124.461H108.238V123.556Z" fill="#2F2E41"/>
<path d="M92.8752 123.556H88.0082V124.461H92.8752V123.556Z" fill="#2F2E41"/>
<path d="M84.4915 223.912C84.3 223.509 84.1967 223.069 84.1884 222.622L83.0524 181.166C83.0154 179.44 83.664 177.771 84.8557 176.525C86.0473 175.279 87.6844 174.557 89.4069 174.52C91.1294 174.482 92.7963 175.132 94.0409 176.325C95.2855 177.518 96.0059 179.158 96.0438 180.883L97.1796 222.34C97.197 223.179 96.881 223.992 96.3012 224.598C95.7213 225.205 94.9248 225.556 94.0865 225.576L87.4193 225.721C86.8093 225.733 86.2086 225.57 85.6893 225.249C85.1699 224.928 84.754 224.464 84.4915 223.912Z" fill="#6DBF5A"/>
<path d="M87.7737 111.322C90.5734 114.989 95.018 117.449 99.7154 116.866C104.189 116.312 107.879 113.189 108.805 108.718C109.209 106.604 109.1 104.424 108.487 102.361C107.874 100.299 106.775 98.4137 105.282 96.8654C102.116 93.53 97.5846 91.7358 93.0993 91.1205C84.6028 89.9551 75.8766 92.9527 69.4524 98.5434C66.2262 101.323 63.6511 104.78 61.9101 108.669C60.233 112.53 59.4343 116.715 59.5718 120.923C59.8187 129.239 63.4553 137.538 69.7303 143.053C70.5096 143.736 71.3253 144.376 72.1739 144.97C72.8895 145.473 73.5676 144.296 72.858 143.798C66.432 139.283 62.3331 131.936 61.2082 124.217C60.619 120.327 60.8817 116.356 61.9781 112.578C63.0746 108.801 64.9785 105.308 67.5577 102.341C72.7466 96.4313 80.3549 92.5903 88.235 92.2462C96.1642 91.8999 106.073 95.4455 107.557 104.286C108.222 108.248 106.743 112.413 103.118 114.397C99.2363 116.521 94.4768 115.647 91.1412 112.904C90.3244 112.235 89.5872 111.474 88.9441 110.636C88.4213 109.952 87.2435 110.627 87.7737 111.322Z" fill="#2F2E41"/>
<path d="M175.429 271.6H0.858093C0.736573 271.6 0.62003 271.552 0.534103 271.466C0.448176 271.38 0.399902 271.263 0.399902 271.141C0.399902 271.02 0.448176 270.903 0.534103 270.817C0.62003 270.731 0.736573 270.682 0.858093 270.682H175.429C175.55 270.682 175.667 270.731 175.753 270.817C175.839 270.903 175.887 271.02 175.887 271.141C175.887 271.263 175.839 271.38 175.753 271.466C175.667 271.552 175.55 271.6 175.429 271.6Z" fill="#3F3D56"/>
</g>
<defs>
<clipPath id="clip0_717_261">
<rect width="386.4" height="271.2" fill="white" transform="translate(0.399902 0.400146)"/>
</clipPath>
</defs>
</svg>
