<svg width="302" height="138" viewBox="0 0 302 138" fill="none" xmlns="http://www.w3.org/2000/svg">
<g clip-path="url(#clip0_717_342)">
<path d="M277.711 77.9906C285.168 77.9906 291.214 71.9127 291.214 64.4152C291.214 56.9177 285.168 50.8398 277.711 50.8398C270.253 50.8398 264.208 56.9177 264.208 64.4152C264.208 71.9127 270.253 77.9906 277.711 77.9906Z" fill="#F2F2F2"/>
<path d="M277.711 67.9877C279.673 67.9877 281.264 66.3883 281.264 64.4152C281.264 62.4422 279.673 60.8428 277.711 60.8428C275.748 60.8428 274.157 62.4422 274.157 64.4152C274.157 66.3883 275.748 67.9877 277.711 67.9877Z" fill="#E6E6E6"/>
<path d="M277.062 64.4914C278.558 65.7191 279.015 67.6539 278.736 69.5223C278.394 71.5715 277.336 73.431 275.753 74.7669C273.973 76.3575 271.802 77.4323 269.707 78.5329C267.782 79.5205 265.932 80.6494 264.173 81.9105C257.435 86.8337 252.345 93.8437 249.432 101.666C246.523 109.476 245.743 118.34 247.953 126.433C249.046 130.438 251.258 134.758 255.379 136.265C258.664 137.466 263.148 136.692 264.821 133.289C266.617 129.633 264.111 125.523 260.882 123.708C256.697 121.356 251.697 123.075 247.933 125.456C243.788 128.078 240.457 131.84 236.13 134.19C234.182 135.282 232.015 135.917 229.789 136.05C227.745 136.131 225.705 135.814 223.78 135.117C219.788 133.654 216.35 130.972 213.951 127.446C211.203 123.43 209.972 118.506 209.748 113.683C209.246 102.892 213.486 92.7969 216.888 82.7895C218.717 77.5783 220.086 72.2157 220.981 66.7636C221.833 61.2838 222.136 55.732 221.886 50.1915C221.661 45.2923 221.18 40.1693 219.029 35.6948C217.138 31.7603 213.682 28.5402 209.312 27.7283C207.342 27.3397 205.301 27.5754 203.47 28.403C202.847 28.6888 203.388 29.6128 204.008 29.3284C207.875 27.5548 212.446 29.2805 215.302 32.1441C218.638 35.4882 219.863 40.4264 220.407 44.9831C221.629 55.782 220.666 66.7178 217.575 77.1328C214.609 87.2615 209.944 96.9675 208.867 107.579C208.376 112.422 208.628 117.428 210.168 122.071C211.489 126.207 213.965 129.874 217.303 132.633C220.445 135.187 224.31 136.927 228.379 137.121C232.947 137.338 236.953 135.291 240.496 132.568C244.292 129.651 247.784 126.052 252.382 124.416C254.478 123.671 256.865 123.323 259.017 124.041C260.864 124.675 262.43 125.941 263.442 127.617C264.377 129.18 264.722 131.134 263.869 132.812C263.067 134.39 261.501 135.303 259.807 135.616C258.012 135.935 256.164 135.619 254.575 134.722C252.718 133.656 251.36 131.867 250.408 129.977C248.511 126.208 247.873 121.722 247.776 117.539C247.692 113.453 248.212 109.377 249.321 105.445C251.528 97.4914 255.983 90.3522 262.146 84.8931C263.698 83.5335 265.359 82.3041 267.111 81.2174C269.023 80.0328 271.064 79.0863 273.013 77.9685C274.931 76.8686 276.82 75.5545 278.141 73.7446C279.267 72.1934 279.875 70.3236 279.878 68.4035C279.898 67.5204 279.723 66.6437 279.367 65.8364C279.01 65.029 278.48 64.3109 277.815 63.7336C277.288 63.3011 276.53 64.055 277.062 64.4914Z" fill="#CCCCCC"/>
<path d="M151.001 126.933C155.722 130.002 161.184 131.723 166.803 131.913C166.703 132.153 166.59 132.386 166.466 132.614C165.812 133.827 164.887 134.873 163.765 135.668C162.436 136.608 160.876 137.164 159.254 137.273C157.633 137.383 156.013 137.043 154.571 136.29C153.128 135.538 151.919 134.401 151.076 133.005C150.232 131.609 149.785 130.007 149.786 128.373V126.933H151.001Z" fill="#3F3D56"/>
<path d="M184.144 127.355V128.373C184.145 130.355 183.489 132.281 182.279 133.847C181.07 135.412 179.376 136.528 177.465 137.017C175.555 137.507 173.536 137.343 171.729 136.55C169.922 135.758 168.429 134.383 167.485 132.642C167.355 132.409 167.238 132.17 167.134 131.924C167.393 131.931 167.649 131.935 167.908 131.935C173.637 131.942 179.255 130.357 184.144 127.355Z" fill="#3F3D56"/>
<path d="M196.098 19.6879C195.832 19.6486 195.561 19.6236 195.291 19.6057C198.36 26.7159 198.573 34.7443 195.885 42.0086C196.155 41.9765 196.421 41.9336 196.688 41.8836C199.29 41.3767 201.629 39.9578 203.289 37.8795C204.948 35.8012 205.82 33.1984 205.749 30.5344C205.678 27.8704 204.669 25.3182 202.902 23.3319C201.135 21.3457 198.724 20.0544 196.098 19.6879Z" fill="#3F3D56"/>
<path d="M140.525 19.6057C140.255 19.6236 139.985 19.6486 139.719 19.6879C137.093 20.0544 134.682 21.3457 132.915 23.3319C131.147 25.3181 130.139 27.8704 130.068 30.5344C129.997 33.1984 130.869 35.8012 132.528 37.8795C134.187 39.9578 136.526 41.3767 139.129 41.8836C139.395 41.9336 139.662 41.9765 139.932 42.0086C137.244 34.7443 137.456 26.7159 140.525 19.6057Z" fill="#3F3D56"/>
<path d="M196.098 19.6879C193.171 12.6572 187.748 6.97158 180.884 3.7355C174.02 0.499421 166.205 -0.0560133 158.956 2.1771C151.707 4.41022 145.543 9.27243 141.661 15.8191C137.779 22.3659 136.456 30.1296 137.949 37.6021C139.443 45.0746 143.645 51.7223 149.741 56.2537C155.837 60.7851 163.391 62.8766 170.935 62.122C178.479 61.3674 185.475 57.8205 190.563 52.1703C195.651 46.5202 198.469 39.1703 198.468 31.5485C198.467 27.4762 197.661 23.4447 196.098 19.6879ZM195.885 42.0086C193.285 49.0335 188.165 54.8258 181.53 58.2454C174.896 61.665 167.229 62.4643 160.038 60.486C152.847 58.5077 146.653 53.895 142.675 47.5558C138.697 41.2166 137.224 33.6102 138.545 26.2335C139.865 18.8568 143.884 12.2443 149.811 7.69737C155.738 3.15044 163.143 0.998469 170.569 1.66501C177.995 2.33155 184.903 5.76832 189.935 11.2989C194.967 16.8295 197.758 24.0533 197.758 31.5485C197.756 35.1194 197.122 38.6615 195.885 42.0086Z" fill="#3F3D56"/>
<path d="M183.544 24.5823H152.273C150.624 24.5823 149.042 25.241 147.876 26.4134C146.709 27.5858 146.054 29.176 146.054 30.8341C146.054 32.4922 146.709 34.0823 147.876 35.2548C149.042 36.4272 150.624 37.0859 152.273 37.0859H183.544C185.193 37.0859 186.775 36.4272 187.941 35.2548C189.107 34.0823 189.762 32.4922 189.762 30.8341C189.762 29.176 189.107 27.5858 187.941 26.4134C186.775 25.241 185.193 24.5823 183.544 24.5823Z" fill="#3F3D56"/>
<path d="M167.908 68.345C159.554 68.3488 151.533 71.639 145.561 77.5119C139.589 83.3847 136.139 91.3739 135.951 99.7706C135.762 108.167 138.85 116.305 144.552 122.442C150.255 128.58 158.12 132.231 166.465 132.614C166.803 132.631 167.144 132.642 167.485 132.642C167.627 132.649 167.766 132.649 167.908 132.649C176.39 132.649 184.525 129.262 190.522 123.232C196.52 117.202 199.89 109.024 199.89 100.497C199.89 91.9699 196.52 83.7918 190.522 77.7621C184.525 71.7324 176.39 68.345 167.908 68.345ZM184.144 127.355C179.255 130.357 173.637 131.942 167.908 131.935C167.649 131.935 167.393 131.931 167.133 131.924C167.023 131.924 166.913 131.921 166.803 131.913C159.294 131.651 152.13 128.681 146.619 123.546C141.109 118.41 137.621 111.453 136.792 103.945C135.963 96.4376 137.85 88.8808 142.106 82.6561C146.363 76.4314 152.706 71.9545 159.975 70.0436C167.244 68.1327 174.955 68.9154 181.697 72.2488C188.44 75.5821 193.764 81.2434 196.697 88.198C199.63 95.1525 199.975 102.936 197.67 110.126C195.366 117.315 190.564 123.431 184.144 127.355Z" fill="#3F3D56"/>
<path d="M190.354 92.578H176.377C175.403 92.578 174.469 92.1891 173.781 91.4968C173.092 90.8045 172.705 89.8655 172.705 88.8864C172.705 87.9074 173.092 86.9684 173.781 86.2761C174.469 85.5838 175.403 85.1948 176.377 85.1948H190.354C191.328 85.1948 192.262 85.5838 192.951 86.2761C193.64 86.9684 194.026 87.9074 194.026 88.8864C194.026 89.8655 193.64 90.8045 192.951 91.4968C192.262 92.1891 191.328 92.578 190.354 92.578Z" fill="#3F3D56"/>
<path d="M177.309 90.7601C178.339 90.7601 179.173 89.9212 179.173 88.8865C179.173 87.8518 178.339 87.0129 177.309 87.0129C176.28 87.0129 175.446 87.8518 175.446 88.8865C175.446 89.9212 176.28 90.7601 177.309 90.7601Z" fill="#F2F2F2"/>
<path d="M183.366 90.7601C184.395 90.7601 185.23 89.9212 185.23 88.8865C185.23 87.8518 184.395 87.0129 183.366 87.0129C182.337 87.0129 181.502 87.8518 181.502 88.8865C181.502 89.9212 182.337 90.7601 183.366 90.7601Z" fill="#F2F2F2"/>
<path d="M189.423 90.7601C190.452 90.7601 191.286 89.9212 191.286 88.8865C191.286 87.8518 190.452 87.0129 189.423 87.0129C188.393 87.0129 187.559 87.8518 187.559 88.8865C187.559 89.9212 188.393 90.7601 189.423 90.7601Z" fill="#6DBF5A"/>
<path d="M59.2994 136.36C62.4948 133.646 64.4358 129.357 63.9268 125.183C63.4178 121.008 60.2651 117.17 56.1755 116.284C52.0859 115.397 47.4241 117.851 46.182 121.867C45.4984 114.124 44.7106 106.057 40.6158 99.4627C36.908 93.492 30.486 89.2197 23.526 88.4554C16.566 87.6911 9.23806 90.5778 4.89737 96.1006C0.55669 101.623 -0.506111 109.652 2.53399 115.993C4.77353 120.664 8.89954 124.14 13.2226 126.968C27.0146 135.99 44.1235 139.039 60.4029 136.63L59.2994 136.36Z" fill="#F2F2F2"/>
<path d="M11.78 90.738C17.5228 95.4406 22.7913 100.7 27.5091 106.44C32.2277 112.175 36.382 118.356 39.9135 124.897C41.8874 128.566 43.6606 132.341 45.2253 136.204C45.5443 136.99 44.2749 137.332 43.9594 136.555C41.1881 129.744 37.7594 123.222 33.7226 117.083C29.7054 110.966 25.1075 105.256 19.9934 100.032C17.1009 97.0787 14.0491 94.2876 10.8517 91.6712C10.1963 91.1347 11.13 90.2059 11.78 90.738Z" fill="white"/>
<path d="M58.216 23.5785C64.2998 23.5785 69.2318 18.6202 69.2318 12.5038C69.2318 6.38748 64.2998 1.4292 58.216 1.4292C52.1321 1.4292 47.2002 6.38748 47.2002 12.5038C47.2002 18.6202 52.1321 23.5785 58.216 23.5785Z" fill="#2F2E41"/>
<path d="M99.3002 53.0553C99.0891 53.3745 98.8318 53.6602 98.5367 53.9029C98.1117 54.2552 97.6175 54.5132 97.0864 54.6601C96.5552 54.8069 95.9993 54.8393 95.4548 54.755C94.9104 54.6708 94.3899 54.4718 93.9272 54.1712C93.4646 53.8706 93.0704 53.4751 92.7705 53.0107C92.701 52.9025 92.6373 52.7906 92.5796 52.6756L75.2209 50.9919C73.8509 50.8538 72.5617 50.2752 71.5447 49.3421C70.5278 48.4089 69.8372 47.171 69.5755 45.812L68.5902 40.5901L75.3647 39.5305L76.5804 43.7133L93.5049 47.8928C93.636 47.7772 93.7749 47.6709 93.9208 47.5748C94.6758 47.0823 95.5766 46.8667 96.4714 46.9644C97.3661 47.0621 98.1999 47.4671 98.8321 48.1111C99.4642 48.7552 99.856 49.5988 99.9413 50.4995C100.027 51.4002 99.8001 52.3029 99.3002 53.0553Z" fill="#FFB8B8"/>
<path d="M76.9966 43.0818L69.4291 45.137C69.0197 45.2477 68.5833 45.1906 68.2157 44.9782C67.8481 44.7659 67.5793 44.4156 67.4683 44.0042L64.8178 34.14C64.5338 33.0834 64.6491 31.9585 65.1413 30.9823C65.6335 30.006 66.4677 29.2475 67.4833 28.8531C68.4988 28.4586 69.6236 28.4561 70.6409 28.8461C71.6581 29.236 72.4957 29.9908 72.9921 30.9649L78.0027 40.7967C78.1114 41.0099 78.1713 41.2448 78.1781 41.4842C78.1848 41.7236 78.1383 41.9616 78.0419 42.1806C77.9454 42.3996 77.8015 42.5942 77.6207 42.7501C77.4398 42.906 77.2266 43.0194 76.9966 43.0818Z" fill="#2F2E41"/>
<path d="M72.613 133.658H76.9692L79.042 116.764L72.6119 116.765L72.613 133.658Z" fill="#FFB8B8"/>
<path d="M85.3713 137.724L71.6795 137.725L71.6793 132.406L80.0811 132.406C81.4841 132.406 82.8296 132.966 83.8218 133.964C84.8139 134.961 85.3713 136.314 85.3713 137.724Z" fill="#2F2E41"/>
<path d="M33.7842 129.389L37.86 130.936L45.7352 115.868L39.7199 113.585L33.7842 129.389Z" fill="#FFB8B8"/>
<path d="M44.2911 137.725L31.482 132.863L33.3506 127.887L41.2108 130.871C42.5233 131.369 43.5852 132.371 44.1629 133.656C44.7406 134.942 44.7867 136.405 44.2911 137.725Z" fill="#2F2E41"/>
<path d="M72.4755 129.734C72.1378 129.734 71.8088 129.626 71.5359 129.426C71.2629 129.226 71.06 128.944 70.9561 128.621L59.8449 94.124C59.812 94.0218 59.7492 93.9318 59.6648 93.8659C59.5804 93.7999 59.4782 93.761 59.3715 93.7542C59.2648 93.7474 59.1585 93.773 59.0664 93.8277C58.9744 93.8824 58.9008 93.9636 58.8553 94.0609L43.4565 126.999C43.2897 127.356 42.9989 127.638 42.639 127.793C42.2792 127.948 41.8752 127.965 41.5037 127.841L35.439 125.808C35.0538 125.678 34.7321 125.406 34.539 125.047C34.3458 124.688 34.2957 124.268 34.3987 123.873L43.8312 87.9528C44.8182 84.1479 45.5311 80.2764 45.9645 76.3684C46.626 69.9331 49.627 63.9698 54.3922 59.6218C56.4728 57.7054 57.8254 55.1208 58.2178 52.3115L58.2433 52.1318L72.057 54.3245L80.8069 126.106C80.8521 126.49 80.7588 126.877 80.5438 127.198C80.3288 127.519 80.0064 127.751 79.6354 127.853L72.893 129.678C72.7569 129.715 72.6165 129.734 72.4755 129.734Z" fill="#2F2E41"/>
<path d="M62.5921 23.5257C67.4123 23.5257 71.3198 19.5973 71.3198 14.7514C71.3198 9.90546 67.4123 5.97705 62.5921 5.97705C57.7719 5.97705 53.8644 9.90546 53.8644 14.7514C53.8644 19.5973 57.7719 23.5257 62.5921 23.5257Z" fill="#FFB8B8"/>
<path d="M71.1985 55.8551C71.1712 55.8551 71.1439 55.8543 71.1163 55.853L57.4226 55.1646C57.0404 55.1473 56.6772 54.992 56.3997 54.7272C56.1222 54.4624 55.9489 54.1059 55.9117 53.7231L54.041 35.3863C53.904 34.0435 54.0958 32.6873 54.5996 31.4361C55.1033 30.1848 55.9038 29.0764 56.9313 28.2074C57.9587 27.3384 59.182 26.7352 60.4945 26.4503C61.8069 26.1655 63.1687 26.2076 64.4613 26.5731C65.5321 26.8679 66.5301 27.384 67.3914 28.0884C77.0243 36.0415 73.9183 50.4514 72.7368 54.6783C72.6442 55.0169 72.4435 55.3155 72.1655 55.5281C71.8876 55.7407 71.5478 55.8556 71.1985 55.8551Z" fill="#6DBF5A"/>
<path d="M59.2855 68.1679C58.9043 68.168 58.5251 68.1108 58.1607 67.9983C57.6335 67.8377 57.146 67.567 56.7302 67.2038C56.3144 66.8406 55.9797 66.3931 55.7479 65.8908C55.5161 65.3884 55.3924 64.8425 55.3851 64.2888C55.3778 63.7351 55.487 63.186 55.7055 62.6777C55.7566 62.5596 55.8139 62.4443 55.8772 62.3323L47.6561 46.8702C47.0116 45.647 46.7767 44.2474 46.9861 42.8793C47.1955 41.5112 47.8382 40.2474 48.8187 39.2756L52.5974 35.5583L57.2274 40.6418L54.4369 43.9763L60.3506 60.4575C60.519 60.5031 60.684 60.5606 60.8443 60.6295C61.6704 60.9885 62.348 61.6231 62.7627 62.4261C63.1774 63.2292 63.3039 64.1514 63.1207 65.0373C62.9375 65.9232 62.4559 66.7184 61.7572 67.2887C61.0586 67.8591 60.1855 68.1696 59.2855 68.1679Z" fill="#FFB8B8"/>
<path d="M55.1902 43.9749L49.2964 38.7792C48.9779 38.4979 48.7835 38.101 48.7558 37.6757C48.728 37.2504 48.8692 36.8314 49.1483 36.5106L55.8491 28.828C56.5669 28.0051 57.5623 27.4784 58.6434 27.3496C59.7245 27.2208 60.8147 27.499 61.7039 28.1305C62.5931 28.762 63.2182 29.7021 63.4587 30.7696C63.6993 31.837 63.5382 32.9562 63.0066 33.9113L57.6399 43.5513C57.5235 43.7603 57.3622 43.9406 57.1677 44.0789C56.9732 44.2172 56.7504 44.31 56.5155 44.3506C56.2807 44.3912 56.0399 44.3785 55.8106 44.3135C55.5813 44.2485 55.3693 44.1328 55.1902 43.9749Z" fill="#2F2E41"/>
<path d="M56.9758 23.2744C57.7721 23.5583 58.7483 23.8085 59.3749 23.2198C59.9867 22.645 59.8752 21.594 59.5149 20.8196C59.1545 20.0453 58.5956 19.3562 58.4242 18.5134C58.1786 17.3055 58.8136 16.0507 59.7201 15.2632C60.6265 14.4757 61.7675 14.062 62.8814 13.6639L68.9909 11.4805C70.5032 10.9401 72.1329 10.3052 72.9792 8.88291C74.2037 6.82495 73.0842 3.88322 71.0756 2.68236C69.067 1.4815 66.5299 1.70521 64.3628 2.5496C63.1642 3.01661 62.0241 3.66016 60.7846 3.98891C58.3382 4.63773 55.5567 4.05567 53.407 5.44236C51.5357 6.64947 50.6677 9.11249 50.7307 11.4171C50.7938 13.7216 51.6378 15.9164 52.5281 18.0241C53.0577 19.278 53.6235 20.5463 54.5206 21.5436C55.4177 22.5409 56.7141 23.2386 58.0091 23.0551L56.9758 23.2744Z" fill="#2F2E41"/>
<path d="M48.977 14.2899C52.902 14.2899 56.0839 11.091 56.0839 7.14493C56.0839 3.19889 52.902 0 48.977 0C45.0519 0 41.87 3.19889 41.87 7.14493C41.87 11.091 45.0519 14.2899 48.977 14.2899Z" fill="#2F2E41"/>
<path d="M106.619 48.3891L106.492 48.3717L106.967 44.8983C107.04 44.3651 106.899 43.8247 106.576 43.3958C106.253 42.967 105.773 42.6849 105.243 42.6116L97.9225 41.6C97.3922 41.5267 96.8546 41.6682 96.428 41.9934C96.0014 42.3186 95.7208 42.8008 95.6479 43.334L93.0424 62.3897C92.9695 62.9229 93.1102 63.4633 93.4337 63.8922C93.7572 64.321 94.2368 64.6031 94.7672 64.6764L102.087 65.688C102.618 65.7613 103.155 65.6198 103.582 65.2946C104.008 64.9694 104.289 64.4872 104.362 63.954L106.154 50.8442L106.28 50.8616L106.619 48.3891Z" fill="#3F3D56"/>
<path d="M105.012 43.6307L104.101 43.5048C104.129 43.6139 104.13 43.7282 104.103 43.8376C104.077 43.9471 104.024 44.0483 103.949 44.1323C103.875 44.2163 103.781 44.2807 103.675 44.3196C103.57 44.3585 103.457 44.3708 103.346 44.3555L99.3463 43.8027C99.2353 43.7874 99.1298 43.7448 99.0391 43.6788C98.9483 43.6128 98.8751 43.5254 98.8258 43.4242C98.7766 43.3231 98.7528 43.2113 98.7567 43.0987C98.7605 42.9862 98.7919 42.8763 98.8479 42.7788L97.9967 42.6612C97.8096 42.6353 97.6193 42.6468 97.4367 42.6948C97.254 42.7429 97.0825 42.8267 96.9321 42.9414C96.7816 43.0561 96.6551 43.1995 96.5598 43.3633C96.4645 43.5272 96.4022 43.7083 96.3764 43.8964L93.8947 62.046C93.8428 62.4258 93.9431 62.8108 94.1735 63.1162C94.4039 63.4217 94.7456 63.6227 95.1234 63.6749L102.139 64.6444C102.517 64.6966 102.9 64.5958 103.204 64.3642C103.508 64.1326 103.707 63.7891 103.759 63.4093L106.241 45.2596C106.293 44.8798 106.193 44.4948 105.962 44.1893C105.732 43.8839 105.39 43.6829 105.012 43.6307Z" fill="white"/>
<path d="M100.037 58.6993C102.196 58.6993 103.946 56.9399 103.946 54.7696C103.946 52.5992 102.196 50.8398 100.037 50.8398C97.878 50.8398 96.1279 52.5992 96.1279 54.7696C96.1279 56.9399 97.878 58.6993 100.037 58.6993Z" fill="#6DBF5A"/>
<path d="M99.6494 56.2687C99.5614 56.2689 99.4758 56.2403 99.4055 56.1873L99.4011 56.184L98.4825 55.4769C98.4397 55.4442 98.4038 55.4034 98.3767 55.3567C98.3497 55.31 98.3321 55.2584 98.3249 55.2049C98.3178 55.1513 98.3212 55.0969 98.335 55.0447C98.3488 54.9925 98.3728 54.9435 98.4054 54.9007C98.4381 54.8578 98.4789 54.8218 98.5255 54.7948C98.572 54.7678 98.6234 54.7503 98.6767 54.7434C98.7299 54.7364 98.7841 54.74 98.8359 54.7541C98.8878 54.7682 98.9364 54.7925 98.9789 54.8255L99.5739 55.2842L100.98 53.4407C101.013 53.3979 101.053 53.362 101.1 53.3351C101.146 53.3081 101.197 53.2906 101.25 53.2836C101.304 53.2765 101.358 53.2801 101.409 53.294C101.461 53.3079 101.51 53.3319 101.552 53.3647C101.638 53.431 101.694 53.529 101.708 53.6368C101.723 53.7447 101.694 53.8538 101.628 53.9402L99.9741 56.1086C99.9358 56.1586 99.8866 56.199 99.8303 56.2268C99.774 56.2545 99.7121 56.2689 99.6494 56.2687Z" fill="white"/>
<path d="M301.577 138H3.33546C3.22346 138 3.11615 137.955 3.03707 137.875C2.95799 137.795 2.91357 137.687 2.91357 137.575C2.91357 137.462 2.95799 137.354 3.03707 137.274C3.11615 137.195 3.22346 137.15 3.33546 137.149H301.577C301.689 137.149 301.797 137.194 301.876 137.274C301.955 137.354 302 137.462 302 137.575C302 137.688 301.955 137.796 301.876 137.876C301.797 137.955 301.689 138 301.577 138Z" fill="#CCCCCC"/>
</g>
<defs>
<clipPath id="clip0_717_342">
<rect width="301.2" height="138" fill="white" transform="translate(0.800049)"/>
</clipPath>
</defs>
</svg>
